<svg width="22" height="23" viewBox="0 0 22 23" fill="none" xmlns="http://www.w3.org/2000/svg">
<g filter="url(#filter0_d_11424_65307)">
<path d="M11 13.3333H17" stroke="#8D18AF" stroke-width="1.5" stroke-linecap="round" stroke-linejoin="round"/>
<path d="M14 2.3334C14.2652 2.06819 14.6249 1.91919 15 1.91919C15.1857 1.91919 15.3696 1.95577 15.5412 2.02684C15.7128 2.09791 15.8687 2.20208 16 2.3334C16.1313 2.46472 16.2355 2.62063 16.3066 2.79221C16.3776 2.96379 16.4142 3.14769 16.4142 3.3334C16.4142 3.51912 16.3776 3.70302 16.3066 3.8746C16.2355 4.04618 16.1313 4.20208 16 4.3334L7.66667 12.6667L5 13.3334L5.66667 10.6667L14 2.3334Z" stroke="#8D18AF" stroke-width="1.5" stroke-linecap="round" stroke-linejoin="round"/>
</g>
<defs>
<filter id="filter0_d_11424_65307" x="-1" y="0" width="24" height="24" filterUnits="userSpaceOnUse" color-interpolation-filters="sRGB">
<feFlood flood-opacity="0" result="BackgroundImageFix"/>
<feColorMatrix in="SourceAlpha" type="matrix" values="0 0 0 0 0 0 0 0 0 0 0 0 0 0 0 0 0 0 127 0" result="hardAlpha"/>
<feOffset dy="4"/>
<feGaussianBlur stdDeviation="2"/>
<feComposite in2="hardAlpha" operator="out"/>
<feColorMatrix type="matrix" values="0 0 0 0 0 0 0 0 0 0 0 0 0 0 0 0 0 0 0.25 0"/>
<feBlend mode="normal" in2="BackgroundImageFix" result="effect1_dropShadow_11424_65307"/>
<feBlend mode="normal" in="SourceGraphic" in2="effect1_dropShadow_11424_65307" result="shape"/>
</filter>
</defs>
</svg>
