<svg width="228" height="184" viewBox="0 0 228 184" fill="none" xmlns="http://www.w3.org/2000/svg">
<g opacity="0.5">
<path d="M244.87 124.672L226.293 98.0111C223.779 94.4134 217.518 92.7731 212.075 94.5061L211.873 94.5531C209.116 95.3502 207.187 96.8845 206.147 98.8313C205.107 100.778 205.217 102.767 206.409 104.658C210.609 111.117 218.09 122.234 220.181 125.001L215.302 140.238L209.576 141.417L210.809 129.664C211.062 125.732 207.134 122.463 201.368 121.792C201.368 121.792 201.166 121.839 201.096 121.701C199.47 121.615 197.986 121.806 196.37 122.182C192.734 123.029 190.008 125.214 189.25 127.715L181.926 151.888C181.36 153.879 181.603 155.682 182.582 157.158L201.22 186.594C201.987 187.655 203.623 188.203 205.239 187.827L238.765 180.016C239.573 179.827 240.24 179.362 240.633 178.806C241.027 178.249 240.876 177.509 240.593 176.956L230.002 162.844L245.486 131.192C246.526 129.245 246.203 126.841 244.87 124.672Z" fill="#574191"/>
<path d="M123.319 152.117C120.37 150.324 116.301 149.878 112.665 150.725C110.847 151.149 109.645 151.894 108.574 152.453C108.574 152.453 108.373 152.5 108.443 152.638C104.514 155.569 104.403 159.779 108.189 162.771L119.883 171.514L114.368 173.109L96.6255 163.14C95.5454 160.138 91.295 148.266 88.9129 141.382C88.1253 139.396 86.3989 137.784 83.8036 136.684C81.2083 135.584 78.3606 135.317 75.3911 135.699L75.1893 135.746C69.3921 136.787 65.8876 140.548 67.1896 144.429L76.8809 173.166C77.7393 175.29 79.6777 177.318 82.3436 178.556L123.686 197.128L128.219 212.654C128.3 213.255 129.057 213.853 129.875 214.127C130.693 214.401 131.642 214.49 132.45 214.302L165.98 206.489C167.596 206.113 168.384 204.999 168.02 203.844L155.573 172.806C154.926 171.097 153.472 169.576 151.281 168.382L123.319 152.117Z" fill="#574191"/>
<path d="M131.093 54.6493L104.272 96.3999L116.891 134.556C117.849 137.452 120.795 138.933 123.691 137.976L186.716 117.132C189.612 116.175 191.094 113.228 190.136 110.332L177.517 72.1765L131.093 54.6493Z" fill="#7356BF"/>
<mask id="mask0_10044_48755" style="mask-type:alpha" maskUnits="userSpaceOnUse" x="120" y="74" width="51" height="52">
<circle cx="25.1344" cy="25.1344" r="25.1344" transform="matrix(0.954715 -0.29752 0.297518 0.954716 113.996 83.3439)" fill="white"/>
</mask>
<g mask="url(#mask0_10044_48755)">
<path d="M141.32 101.14L133.363 120.484L141.585 117.922L149.542 98.5779L141.32 101.14Z" fill="#957FCE"/>
<path d="M149.242 81.8377L141.287 101.166L149.506 98.6047L157.461 79.2766L149.242 81.8377Z" fill="#574191"/>
<path d="M136.064 90.1032L127.844 92.6648L141.294 101.164L149.514 98.6018L136.064 90.1032Z" fill="#957FCE"/>
<path d="M149.505 98.6047L141.287 101.166L154.744 109.571L162.961 107.01L149.505 98.6047Z" fill="#574191"/>
</g>
<path d="M100.967 102.407L104.441 96.912L131.262 55.1614L177.743 72.8589L183.808 75.1991C185.112 75.7127 186.247 75.7155 187.439 75.3211C188.972 74.8141 190.11 73.6819 190.737 72.1517C191.708 69.3739 190.298 66.2503 187.69 65.2228L131.005 43.5301C128.625 42.6167 125.899 43.5181 124.533 45.6708L91.9029 96.712C90.2518 99.1476 90.9815 102.497 93.5876 104.092C96.0235 105.743 99.3724 105.013 100.967 102.407Z" fill="#574191"/>
</g>
</svg>
