<svg width="126" height="148" viewBox="0 0 126 148" fill="none" xmlns="http://www.w3.org/2000/svg">
<g opacity="0.5">
<path d="M63.1553 13.787C28.2581 21.4053 5.94598 54.8111 13.2298 88.1763C17.4292 107.412 32.0282 125.27 56.7449 141.275C74.7881 152.852 91.3015 159.056 92.0569 159.248C93.0194 159.573 94.1152 159.69 94.9663 159.504C95.8174 159.319 96.7645 158.755 97.5041 158.059C98.1108 157.57 110.536 145.048 122.113 127.005C137.911 102.155 143.74 79.838 139.54 60.6019C132.257 27.2367 98.0525 6.16876 63.1553 13.787Z" fill="#7356BF"/>
<path d="M81.7737 99.0724C97.6052 95.6163 107.718 79.8545 104.262 64.023C100.806 48.1915 85.0443 38.0784 69.2128 41.5345C53.3813 44.9906 43.2682 60.7524 46.7243 76.5839C50.1804 92.4154 65.9422 102.529 81.7737 99.0724Z" fill="#574191"/>
</g>
</svg>
