<svg width="24" height="30" viewBox="0 0 24 30" fill="none" xmlns="http://www.w3.org/2000/svg">
<path d="M20.2627 10.858C14.9003 4.93534 13.6864 0.333252 13.6864 0.333252C13.6864 0.333252 12.7526 0.746773 11.7122 1.69387C11.0319 2.32082 10.2982 3.1612 9.73795 4.28171C9.07098 5.62899 8.9109 7.13634 8.9109 8.29687C8.9109 9.41738 8.12388 10.3912 7.01671 10.6179C6.25636 10.7647 5.456 10.5246 4.89574 9.97764L3.81525 8.88381C3.81525 8.88381 2.21453 11.0981 1.9344 11.5117C0.693834 13.3792 -0.013154 15.6335 0.000185418 18.048C0.053543 24.5042 5.25591 29.6666 11.7122 29.6666C18.1818 29.6666 23.4242 24.4242 23.4242 17.9546C23.4242 15.3001 21.9302 12.6989 20.2627 10.858Z" fill="url(#paint0_linear_11595_33220)"/>
<path d="M17.0212 23.0369C17.0212 25.9716 14.6468 28.346 11.7122 28.346C8.77749 28.346 6.40308 25.9716 6.40308 23.0369C6.40308 20.1022 11.7122 15.0066 11.7122 15.0066C11.7122 15.0066 17.0212 20.1022 17.0212 23.0369Z" fill="url(#paint1_linear_11595_33220)"/>
<defs>
<linearGradient id="paint0_linear_11595_33220" x1="11.7121" y1="0.333252" x2="11.7121" y2="29.6666" gradientUnits="userSpaceOnUse">
<stop stop-color="#8D18AF"/>
<stop offset="1" stop-color="#440656"/>
</linearGradient>
<linearGradient id="paint1_linear_11595_33220" x1="11.7122" y1="15.0066" x2="11.7122" y2="28.346" gradientUnits="userSpaceOnUse">
<stop stop-color="#FFC600"/>
<stop offset="1" stop-color="#F37506"/>
</linearGradient>
</defs>
</svg>
