<svg width="148" height="36" viewBox="0 0 148 36" fill="none" xmlns="http://www.w3.org/2000/svg">
<path d="M143 36H0V0H136.19L122.571 15.13L143 36Z" fill="url(#paint0_linear_10822_76345)"/>
<path d="M27.768 22.033C27.12 22.033 26.488 21.953 25.872 21.793C25.256 21.625 24.724 21.397 24.276 21.109L25.092 19.549C25.948 20.077 26.872 20.341 27.864 20.341C28.32 20.341 28.668 20.281 28.908 20.161C29.148 20.041 29.268 19.865 29.268 19.633C29.268 19.385 29.136 19.193 28.872 19.057C28.608 18.913 28.2 18.761 27.648 18.601C27.056 18.425 26.572 18.253 26.196 18.085C25.82 17.917 25.496 17.669 25.224 17.341C24.952 17.005 24.816 16.573 24.816 16.045C24.816 15.509 24.964 15.037 25.26 14.629C25.564 14.221 25.992 13.909 26.544 13.693C27.096 13.469 27.74 13.357 28.476 13.357C29.092 13.357 29.68 13.441 30.24 13.609C30.8 13.777 31.248 14.001 31.584 14.281L30.792 15.841C30.448 15.593 30.064 15.401 29.64 15.265C29.224 15.121 28.816 15.049 28.416 15.049C27.984 15.049 27.64 15.121 27.384 15.265C27.136 15.401 27.012 15.593 27.012 15.841C27.012 16.097 27.14 16.293 27.396 16.429C27.66 16.565 28.076 16.717 28.644 16.885C29.228 17.061 29.704 17.233 30.072 17.401C30.448 17.561 30.772 17.801 31.044 18.121C31.316 18.441 31.452 18.861 31.452 19.381C31.452 20.229 31.132 20.885 30.492 21.349C29.852 21.805 28.944 22.033 27.768 22.033ZM38.8601 21.925L38.2361 20.173H34.4801L33.5921 21.925H31.3361L35.9441 13.465H37.6961L40.9961 21.925H38.8601ZM35.3201 18.517H37.6601L36.6881 15.805L35.3201 18.517ZM36.3761 11.449L37.6481 9.75705H39.5201L37.5761 11.449H36.3761ZM36.9641 12.805C36.4201 12.805 35.9521 12.693 35.5601 12.469C35.1681 12.237 34.9041 11.909 34.7681 11.485L35.4881 11.197C35.6161 11.381 35.8241 11.525 36.1121 11.629C36.4001 11.733 36.7121 11.785 37.0481 11.785C37.3041 11.785 37.5801 11.729 37.8761 11.617C38.1721 11.505 38.3881 11.365 38.5241 11.197L39.1841 11.485C39.0001 11.901 38.7081 12.225 38.3081 12.457C37.9081 12.689 37.4601 12.805 36.9641 12.805ZM46.117 13.465C47.021 13.465 47.725 13.693 48.229 14.149C48.741 14.597 48.997 15.213 48.997 15.997C48.997 16.917 48.729 17.625 48.193 18.121C47.657 18.617 46.885 18.865 45.877 18.865H43.945L43.705 21.925H41.497L42.169 13.465H46.117ZM45.661 17.209C46.517 17.209 46.945 16.845 46.945 16.117C46.945 15.781 46.849 15.533 46.657 15.373C46.473 15.213 46.189 15.133 45.805 15.133H44.245L44.077 17.209H45.661ZM60.5517 13.465H62.2557L61.5837 21.925H59.6637L60.0237 17.485L58.1517 20.521H56.7357L55.3437 17.629L54.9957 21.925H53.0757L53.7477 13.465H55.4877L57.6117 18.193L60.5517 13.465ZM72.1293 12.541C72.0973 13.029 71.9373 13.445 71.6493 13.789C71.3693 14.125 71.0133 14.333 70.5813 14.413C70.9573 14.773 71.2413 15.209 71.4333 15.721C71.6333 16.233 71.7333 16.805 71.7333 17.437C71.7333 18.349 71.5533 19.153 71.1933 19.849C70.8413 20.545 70.3413 21.085 69.6933 21.469C69.0453 21.853 68.2973 22.045 67.4493 22.045C66.6013 22.045 65.8613 21.881 65.2293 21.553C64.5973 21.217 64.1093 20.745 63.7653 20.137C63.4293 19.521 63.2613 18.793 63.2613 17.953C63.2613 17.033 63.4413 16.225 63.8013 15.529C64.1613 14.833 64.6733 14.297 65.3373 13.921C66.0013 13.537 66.7773 13.345 67.6653 13.345C67.9453 13.345 68.2693 13.369 68.6373 13.417C68.9253 13.449 69.1413 13.465 69.2853 13.465C69.6533 13.465 69.9093 13.381 70.0533 13.213C70.2053 13.037 70.2933 12.729 70.3173 12.289L70.3533 12.025H72.1773L72.1293 12.541ZM67.4253 20.341C68.0733 20.341 68.5853 20.085 68.9613 19.573C69.3373 19.061 69.5253 18.349 69.5253 17.437C69.5253 16.677 69.3533 16.089 69.0093 15.673C68.6653 15.257 68.1853 15.049 67.5693 15.049C66.9133 15.049 66.3973 15.309 66.0213 15.829C65.6453 16.341 65.4573 17.049 65.4573 17.953C65.4573 18.721 65.6253 19.313 65.9613 19.729C66.3053 20.137 66.7933 20.341 67.4253 20.341ZM68.3733 12.745H67.3893L67.4133 12.469C67.4213 12.325 67.4733 12.217 67.5693 12.145C67.6653 12.073 67.7933 12.001 67.9533 11.929C68.0493 11.889 68.1213 11.853 68.1693 11.821C68.2173 11.789 68.2413 11.753 68.2413 11.713C68.2413 11.617 68.1413 11.569 67.9413 11.569C67.7173 11.569 67.4733 11.613 67.2093 11.701L67.0053 11.005C67.3733 10.877 67.7693 10.813 68.1933 10.813C68.5933 10.813 68.9093 10.885 69.1413 11.029C69.3733 11.165 69.4893 11.333 69.4893 11.533C69.4893 11.701 69.4333 11.833 69.3213 11.929C69.2173 12.017 69.0613 12.105 68.8533 12.193C68.6933 12.265 68.5773 12.329 68.5053 12.385C68.4333 12.433 68.3933 12.497 68.3853 12.577L68.3733 12.745ZM82.1737 17.557C82.6057 17.685 82.9417 17.929 83.1817 18.289C83.4217 18.641 83.5417 19.053 83.5417 19.525C83.5417 20.293 83.2537 20.885 82.6777 21.301C82.1097 21.717 81.3417 21.925 80.3737 21.925H76.1377L76.7977 13.465H80.7697C81.6977 13.465 82.4057 13.665 82.8937 14.065C83.3897 14.457 83.6377 14.969 83.6377 15.601C83.6377 16.065 83.5177 16.461 83.2777 16.789C83.0377 17.109 82.6697 17.365 82.1737 17.557ZM80.2297 16.789C80.6937 16.789 81.0217 16.729 81.2137 16.609C81.4137 16.481 81.5137 16.261 81.5137 15.949C81.5137 15.677 81.4217 15.473 81.2377 15.337C81.0617 15.201 80.7737 15.133 80.3737 15.133H78.8257L78.6937 16.789H80.2297ZM80.1817 20.257C80.6537 20.257 80.9897 20.189 81.1897 20.053C81.3977 19.917 81.5017 19.681 81.5017 19.345C81.5017 19.049 81.4057 18.829 81.2137 18.685C81.0297 18.533 80.7337 18.457 80.3257 18.457H78.5617L78.4177 20.257H80.1817ZM90.9968 21.925L90.3728 20.173H86.6168L85.7288 21.925H83.4728L88.0808 13.465H89.8328L93.1328 21.925H90.9968ZM87.4568 18.517H89.7968L88.8248 15.805L87.4568 18.517ZM89.6648 12.745H88.3688L89.7008 10.861H91.7168L89.6648 12.745ZM99.7778 13.465H101.842L101.17 21.925H99.5258L96.0818 17.173L95.6858 21.925H93.6338L94.3058 13.465H95.9138L99.3938 18.241L99.7778 13.465Z" fill="white"/>
<path d="M129.82 15.13H115L132.82 35.85H147.65L129.82 15.13Z" fill="url(#paint1_linear_10822_76345)"/>
<path fill-rule="evenodd" clip-rule="evenodd" d="M127.55 0L115 15.13H129.82L142.38 0H127.55Z" fill="#FFC600"/>
<defs>
<linearGradient id="paint0_linear_10822_76345" x1="143" y1="18" x2="110.763" y2="-41.7548" gradientUnits="userSpaceOnUse">
<stop stop-color="#8D18AF"/>
<stop offset="1" stop-color="#F37506"/>
</linearGradient>
<linearGradient id="paint1_linear_10822_76345" x1="131.325" y1="15.13" x2="131.325" y2="35.85" gradientUnits="userSpaceOnUse">
<stop stop-color="#FFC600"/>
<stop offset="1" stop-color="#F37506"/>
</linearGradient>
</defs>
</svg>
