<svg width="130" height="36" viewBox="0 0 130 36" fill="none" xmlns="http://www.w3.org/2000/svg">
<path d="M119 36H0V0H113.333L102 15.13L119 36Z" fill="url(#paint0_linear_10822_76301)"/>
<path d="M29.076 13.465C29.924 13.465 30.664 13.629 31.296 13.957C31.928 14.277 32.412 14.737 32.748 15.337C33.092 15.929 33.264 16.629 33.264 17.437C33.264 18.381 33.076 19.189 32.7 19.861C32.324 20.533 31.78 21.045 31.068 21.397C30.364 21.749 29.516 21.925 28.524 21.925H24.972L25.236 18.493H24.252L24.384 16.825H25.368L25.632 13.465H29.076ZM28.332 20.149C29.26 20.149 29.948 19.933 30.396 19.501C30.844 19.061 31.068 18.369 31.068 17.425C31.068 16.713 30.872 16.173 30.48 15.805C30.088 15.429 29.52 15.241 28.776 15.241H27.708L27.576 16.825H29.784L29.64 18.493H27.444L27.312 20.149H28.332ZM40.4773 21.925L39.8533 20.173H36.0973L35.2093 21.925H32.9533L37.5613 13.465H39.3133L42.6133 21.925H40.4773ZM36.9373 18.517H39.2773L38.3053 15.805L36.9373 18.517ZM36.3613 12.733C36.3933 12.069 36.5493 11.589 36.8293 11.293C37.1173 10.989 37.4693 10.837 37.8853 10.837C38.0293 10.837 38.1653 10.865 38.2933 10.921C38.4293 10.977 38.5813 11.061 38.7493 11.173C38.9173 11.269 39.0413 11.337 39.1213 11.377C39.2093 11.417 39.3013 11.437 39.3973 11.437C39.7093 11.437 39.8853 11.249 39.9253 10.873H40.8013C40.7613 11.529 40.5973 12.009 40.3093 12.313C40.0213 12.617 39.6693 12.769 39.2533 12.769C39.1093 12.769 38.9773 12.741 38.8573 12.685C38.7373 12.629 38.5853 12.545 38.4013 12.433C38.2493 12.337 38.1253 12.269 38.0293 12.229C37.9413 12.181 37.8493 12.157 37.7533 12.157C37.4413 12.157 37.2653 12.349 37.2253 12.733H36.3613ZM52.5838 17.557C53.0158 17.685 53.3518 17.929 53.5918 18.289C53.8318 18.641 53.9518 19.053 53.9518 19.525C53.9518 20.293 53.6638 20.885 53.0878 21.301C52.5198 21.717 51.7518 21.925 50.7838 21.925H46.5478L47.2078 13.465H51.1798C52.1078 13.465 52.8158 13.665 53.3038 14.065C53.7998 14.457 54.0478 14.969 54.0478 15.601C54.0478 16.065 53.9278 16.461 53.6878 16.789C53.4478 17.109 53.0798 17.365 52.5838 17.557ZM50.6398 16.789C51.1038 16.789 51.4318 16.729 51.6238 16.609C51.8238 16.481 51.9238 16.261 51.9238 15.949C51.9238 15.677 51.8318 15.473 51.6478 15.337C51.4718 15.201 51.1838 15.133 50.7838 15.133H49.2358L49.1038 16.789H50.6398ZM50.5918 20.257C51.0638 20.257 51.3998 20.189 51.5998 20.053C51.8078 19.917 51.9118 19.681 51.9118 19.345C51.9118 19.049 51.8158 18.829 51.6238 18.685C51.4398 18.533 51.1438 18.457 50.7358 18.457H48.9718L48.8278 20.257H50.5918ZM61.407 21.925L60.783 20.173H57.027L56.139 21.925H53.883L58.491 13.465H60.243L63.543 21.925H61.407ZM57.867 18.517H60.207L59.235 15.805L57.867 18.517ZM60.075 12.745H58.779L60.111 10.861H62.127L60.075 12.745ZM70.1879 13.465H72.2519L71.5799 21.925H69.9359L66.4919 17.173L66.0959 21.925H64.0439L64.7159 13.465H66.3239L69.8039 18.241L70.1879 13.465Z" fill="white"/>
<path d="M111.82 15.13H97L114.82 35.85H129.65L111.82 15.13Z" fill="url(#paint1_linear_10822_76301)"/>
<path fill-rule="evenodd" clip-rule="evenodd" d="M109.55 0L97 15.13H111.82L124.38 0H109.55Z" fill="#FFC600"/>
<defs>
<linearGradient id="paint0_linear_10822_76301" x1="119" y1="18" x2="82.4359" y2="-36.9017" gradientUnits="userSpaceOnUse">
<stop stop-color="#021C3C"/>
<stop offset="1" stop-color="#0050B3"/>
</linearGradient>
<linearGradient id="paint1_linear_10822_76301" x1="113.325" y1="15.13" x2="113.325" y2="35.85" gradientUnits="userSpaceOnUse">
<stop stop-color="#FFC600"/>
<stop offset="1" stop-color="#F37506"/>
</linearGradient>
</defs>
</svg>
