<svg width="16" height="16" viewBox="0 0 16 16" fill="none" xmlns="http://www.w3.org/2000/svg">
<path d="M13.3333 5.33337H2.66659C1.93021 5.33337 1.33325 5.93033 1.33325 6.66671V13.3334C1.33325 14.0698 1.93021 14.6667 2.66659 14.6667H13.3333C14.0696 14.6667 14.6666 14.0698 14.6666 13.3334V6.66671C14.6666 5.93033 14.0696 5.33337 13.3333 5.33337Z" stroke="#757575" stroke-width="1.5" stroke-linecap="round" stroke-linejoin="round"/>
<path d="M10.6666 14.6666V3.99996C10.6666 3.64634 10.5261 3.3072 10.2761 3.05715C10.026 2.8071 9.68687 2.66663 9.33325 2.66663H6.66659C6.31296 2.66663 5.97383 2.8071 5.72378 3.05715C5.47373 3.3072 5.33325 3.64634 5.33325 3.99996V14.6666" stroke="#757575" stroke-width="1.5" stroke-linecap="round" stroke-linejoin="round"/>
</svg>
