<svg width="32" height="32" viewBox="0 0 32 32" fill="none" xmlns="http://www.w3.org/2000/svg">
<path d="M18.1688 27.6933L16.0088 25.5333L13.8488 27.6933C13.5155 28.0266 12.9688 28.0266 12.6355 27.6933C12.3022 27.36 12.3022 26.8133 12.6355 26.48L15.3955 23.72C15.7288 23.3866 16.2755 23.3866 16.6088 23.72L19.3688 26.48C19.7022 26.8133 19.7022 27.36 19.3688 27.6933C19.0488 28.0266 18.5022 28.0266 18.1688 27.6933Z" fill="url(#paint0_linear_11462_14555)"/>
<path fill-rule="evenodd" clip-rule="evenodd" d="M25.0774 11.3882L24.5497 11.6936C24.1363 11.9336 23.6163 11.7869 23.3763 11.3736L22.2963 9.5069C21.4297 8.00024 21.9497 6.0669 23.4563 5.20024L25.323 4.12024C25.7363 3.88024 26.2563 4.01357 26.4963 4.4269L27.5763 6.29357C28.3111 7.5822 28.0492 9.16791 27.0343 10.1489C27.2271 10.1122 27.4261 10.093 27.6297 10.093H29.7897C30.2563 10.093 30.643 10.4664 30.643 10.9464V13.1063C30.643 14.5796 29.6374 15.8158 28.2745 16.1666C28.4455 16.2287 28.6134 16.3063 28.7763 16.4001L30.643 17.4801C31.0563 17.7201 31.203 18.2401 30.963 18.6534L29.883 20.5201C29.14 21.8035 27.646 22.374 26.292 21.9907C26.4119 22.1324 26.5207 22.2867 26.6163 22.453L27.6963 24.3196C27.923 24.733 27.7897 25.253 27.3763 25.493L25.5097 26.573C24.003 27.453 22.0697 26.933 21.1897 25.413L20.1097 23.5463C19.883 23.133 20.0163 22.613 20.4297 22.373L22.2963 21.293C22.893 20.9497 23.5588 20.824 24.1991 20.8909L23.6963 20.6001C23.283 20.3601 23.1363 19.8401 23.3763 19.4267C23.3763 19.4267 23.9097 18.5067 24.4563 17.5601C24.7991 16.968 25.3017 16.5296 25.8767 16.2663H25.323C24.843 16.2663 24.4563 15.8797 24.4697 15.413V13.253C24.4697 12.5553 24.6952 11.9107 25.0774 11.3882Z" fill="url(#paint1_linear_11462_14555)"/>
<path fill-rule="evenodd" clip-rule="evenodd" d="M7.33446 11.387L7.86221 11.6924C8.27555 11.9324 8.79555 11.7857 9.03555 11.3724L10.1155 9.50568C10.9822 7.99902 10.4622 6.06568 8.95555 5.19902L7.08888 4.11902C6.67555 3.87902 6.15555 4.01235 5.91555 4.42568L4.83555 6.29235C4.1008 7.58098 4.3627 9.16669 5.37752 10.1477C5.18475 10.111 4.98574 10.0918 4.78221 10.0918H2.62221C2.15554 10.0918 1.76888 10.4651 1.76888 10.9451V13.1051C1.76888 14.5784 2.77442 15.8146 4.13739 16.1654C3.96636 16.2275 3.79844 16.3051 3.63552 16.3988L1.76886 17.4788C1.35552 17.7188 1.20886 18.2388 1.44886 18.6522L2.52886 20.5188C3.27189 21.8022 4.76587 22.3727 6.1199 21.9895C5.99998 22.1312 5.89118 22.2855 5.79552 22.4518L4.71553 24.3184C4.48886 24.7318 4.62219 25.2518 5.03552 25.4918L6.90219 26.5718C8.40886 27.4518 10.3422 26.9318 11.2222 25.4118L12.3022 23.5451C12.5289 23.1318 12.3955 22.6118 11.9822 22.3718L10.1155 21.2918C9.51882 20.9485 8.8531 20.8228 8.21279 20.8897L8.71552 20.5988C9.12886 20.3588 9.27552 19.8388 9.03552 19.4255C9.03552 19.4255 8.50219 18.5055 7.95552 17.5588C7.61274 16.9668 7.11013 16.5284 6.53517 16.2651H7.08888C7.56888 16.2651 7.95554 15.8785 7.94221 15.4118V13.2518C7.94221 12.5541 7.71668 11.9095 7.33446 11.387Z" fill="url(#paint2_linear_11462_14555)"/>
<path d="M15.7309 8.54499C15.841 8.32204 16.1589 8.32204 16.2689 8.54499L17.9902 12.0321C18.0338 12.1205 18.1182 12.1819 18.2158 12.1961L22.0654 12.7588C22.3114 12.7948 22.4095 13.0971 22.2314 13.2706L19.4463 15.9832C19.3755 16.0522 19.3432 16.1515 19.3599 16.2489L20.0171 20.0808C20.0592 20.3259 19.8019 20.5128 19.5818 20.397L16.1396 18.5868C16.0521 18.5408 15.9477 18.5408 15.8603 18.5868L12.418 20.397C12.1979 20.5128 11.9407 20.3259 11.9827 20.0808L12.6399 16.2489C12.6566 16.1515 12.6243 16.0522 12.5535 15.9832L9.76846 13.2706C9.59038 13.0971 9.68841 12.7948 9.93439 12.7588L13.784 12.1961C13.8816 12.1819 13.966 12.1205 14.0097 12.0321L15.7309 8.54499Z" fill="url(#paint3_linear_11462_14555)"/>
<defs>
<linearGradient id="paint0_linear_11462_14555" x1="16.0022" y1="23.47" x2="16.0022" y2="27.9433" gradientUnits="userSpaceOnUse">
<stop stop-color="#FFC600"/>
<stop offset="1" stop-color="#F37506"/>
</linearGradient>
<linearGradient id="paint1_linear_11462_14555" x1="25.5393" y1="4.00122" x2="25.5393" y2="27.0012" gradientUnits="userSpaceOnUse">
<stop stop-color="#8D18AF"/>
<stop offset="1" stop-color="#440656"/>
</linearGradient>
<linearGradient id="paint2_linear_11462_14555" x1="6.87256" y1="4" x2="6.87256" y2="27" gradientUnits="userSpaceOnUse">
<stop stop-color="#8D18AF"/>
<stop offset="1" stop-color="#440656"/>
</linearGradient>
<linearGradient id="paint3_linear_11462_14555" x1="15.9999" y1="8" x2="15.9999" y2="20.68" gradientUnits="userSpaceOnUse">
<stop stop-color="#FFC600"/>
<stop offset="1" stop-color="#F37506"/>
</linearGradient>
</defs>
</svg>
