<svg width="14" height="16" viewBox="0 0 14 16" fill="none" xmlns="http://www.w3.org/2000/svg">
<path d="M7 15.3333L6.58397 15.9573C6.8359 16.1253 7.1641 16.1253 7.41603 15.9573L7 15.3333ZM11.2426 2.42399L10.7123 2.95432L11.2426 2.42399ZM2.75736 2.42399L3.28769 2.95432L3.28769 2.95432L2.75736 2.42399ZM12.25 6.66663C12.25 8.6985 10.9257 10.6823 9.45554 12.2341C8.73579 12.9939 8.0135 13.6161 7.4703 14.0487C7.1993 14.2645 6.97439 14.4318 6.81869 14.5443C6.74088 14.6005 6.68047 14.6429 6.64036 14.6707C6.6203 14.6846 6.60533 14.6948 6.59581 14.7013C6.59105 14.7045 6.58766 14.7068 6.58567 14.7081C6.58467 14.7088 6.58403 14.7092 6.58375 14.7094C6.58361 14.7095 6.58355 14.7095 6.58359 14.7095C6.58361 14.7095 6.58371 14.7094 6.58371 14.7094C6.58383 14.7093 6.58397 14.7093 7 15.3333C7.41603 15.9573 7.41621 15.9572 7.41642 15.9571C7.41652 15.957 7.41676 15.9568 7.41696 15.9567C7.41736 15.9564 7.41785 15.9561 7.41844 15.9557C7.41961 15.9549 7.42114 15.9539 7.42303 15.9526C7.42681 15.9501 7.43202 15.9466 7.43861 15.9421C7.45179 15.9331 7.47052 15.9203 7.49441 15.9038C7.54219 15.8707 7.61068 15.8226 7.69693 15.7603C7.86936 15.6358 8.1132 15.4542 8.4047 15.2221C8.9865 14.7588 9.76421 14.0894 10.5445 13.2658C12.0743 11.6509 13.75 9.30141 13.75 6.66663H12.25ZM10.7123 2.95432C11.6969 3.93888 12.25 5.27424 12.25 6.66663H13.75C13.75 4.87641 13.0388 3.15953 11.773 1.89365L10.7123 2.95432ZM7 1.41663C8.39239 1.41663 9.72774 1.96975 10.7123 2.95432L11.773 1.89365C10.5071 0.627785 8.79021 -0.083374 7 -0.083374V1.41663ZM3.28769 2.95432C4.27226 1.96975 5.60761 1.41663 7 1.41663V-0.083374C5.20979 -0.083374 3.4929 0.627784 2.22703 1.89365L3.28769 2.95432ZM1.75 6.66663C1.75 5.27424 2.30312 3.93888 3.28769 2.95432L2.22703 1.89365C0.961159 3.15953 0.25 4.87641 0.25 6.66663H1.75ZM7 15.3333C7.41603 14.7093 7.41617 14.7093 7.41629 14.7094C7.41629 14.7094 7.41639 14.7095 7.41641 14.7095C7.41645 14.7095 7.41639 14.7095 7.41625 14.7094C7.41597 14.7092 7.41533 14.7088 7.41433 14.7081C7.41234 14.7068 7.40895 14.7045 7.40419 14.7013C7.39467 14.6948 7.3797 14.6846 7.35964 14.6707C7.31953 14.6429 7.25912 14.6005 7.18131 14.5443C7.02561 14.4318 6.8007 14.2645 6.5297 14.0487C5.9865 13.6161 5.26421 12.9939 4.54446 12.2341C3.0743 10.6823 1.75 8.6985 1.75 6.66663H0.25C0.25 9.30141 1.9257 11.6509 3.45554 13.2658C4.23579 14.0894 5.0135 14.7588 5.5953 15.2221C5.8868 15.4542 6.13064 15.6358 6.30307 15.7603C6.38932 15.8226 6.45781 15.8707 6.50559 15.9038C6.52948 15.9203 6.54821 15.9331 6.56139 15.9421C6.56798 15.9466 6.57319 15.9501 6.57697 15.9526C6.57886 15.9539 6.58039 15.9549 6.58156 15.9557C6.58215 15.9561 6.58264 15.9564 6.58304 15.9567C6.58324 15.9568 6.58348 15.957 6.58358 15.9571C6.58379 15.9572 6.58397 15.9573 7 15.3333ZM7 9.41663C8.51878 9.41663 9.75 8.18541 9.75 6.66663H8.25C8.25 7.35698 7.69036 7.91663 7 7.91663V9.41663ZM4.25 6.66663C4.25 8.18541 5.48122 9.41663 7 9.41663V7.91663C6.30964 7.91663 5.75 7.35698 5.75 6.66663H4.25ZM7 3.91663C5.48122 3.91663 4.25 5.14784 4.25 6.66663H5.75C5.75 5.97627 6.30964 5.41663 7 5.41663V3.91663ZM9.75 6.66663C9.75 5.14784 8.51878 3.91663 7 3.91663V5.41663C7.69036 5.41663 8.25 5.97627 8.25 6.66663H9.75Z" fill="#757575"/>
</svg>
