<svg width="116" height="40" viewBox="0 0 116 40" fill="none" xmlns="http://www.w3.org/2000/svg">
<path d="M3.42501 34.9634H4.55979L3.10565 39.9596H1.42619L0 34.9634H1.11382L1.81483 37.3316C1.92575 37.7124 2.0716 38.2615 2.25209 38.9788H2.28324C2.45675 38.2932 2.60377 37.7441 2.724 37.3316L3.42501 34.9634Z" fill="url(#paint0_linear_11691_6016)"/>
<path d="M6.04147 34.9634V39.9596H4.94482V34.9634H6.04147Z" fill="url(#paint1_linear_11691_6016)"/>
<path d="M7.89474 35.915V37.0059H10.0048V37.8222H7.89474V39.0082H10.1678V39.9599H6.7981V34.9634H10.1364V35.915H7.89474Z" fill="url(#paint2_linear_11691_6016)"/>
<path d="M12.8502 35.9628V39.9599H11.7535V35.9628H10.4729V34.9634H14.1931V35.9628H12.8502Z" fill="url(#paint3_linear_11691_6016)"/>
<path d="M19.2042 34.9634V39.9596H17.358L16.3134 37.5439C16.2139 37.3095 16.0613 36.9118 15.8555 36.3506L15.7096 35.9514H15.668C15.6933 36.642 15.7073 37.1703 15.7096 37.5363V39.9593H14.6375V34.9634H16.4733L17.4587 37.2766C17.6182 37.6548 17.838 38.2099 18.1181 38.9421H18.1562L18.1422 38.554C18.1259 38.1537 18.1181 37.7671 18.1181 37.3936V34.9634H19.2042Z" fill="url(#paint4_linear_11691_6016)"/>
<path d="M22.8583 39.0518H20.9879L20.7276 39.9596H19.5894L21.0886 34.9634H22.7299L24.2499 39.9596H23.1326L22.8583 39.0518ZM22.6295 38.2064L21.925 35.8309L21.2345 38.2064H22.6295Z" fill="url(#paint5_linear_11691_6016)"/>
<path d="M30.3264 34.9634V39.9596H29.2472V37.8623C29.2495 37.5549 29.2658 37.0766 29.2958 36.4274L29.32 35.9479H29.2854L29.15 36.4091C28.9602 37.0411 28.8169 37.5011 28.7197 37.789L27.9596 39.9596H27.0018L26.2315 37.7963C26.1273 37.4961 25.9817 37.0373 25.7943 36.4198L25.6554 35.9587H25.6207L25.6449 36.4347C25.6796 37.1057 25.6982 37.5817 25.7005 37.8623V39.9596H24.6213V34.9634H26.3494L26.9913 36.8265C27.0816 37.09 27.2353 37.6062 27.4528 38.3747H27.4909L27.5986 37.9904C27.7421 37.4559 27.853 37.0705 27.9316 36.8338L28.5599 34.9634H30.3264Z" fill="url(#paint6_linear_11691_6016)"/>
<path d="M32.9014 39.9599V34.9634H35.2612C35.7354 34.9634 36.0789 35.0196 36.2917 35.1316C36.5462 35.2659 36.7173 35.4781 36.8053 35.7686C36.8539 35.9346 36.878 36.1663 36.878 36.4641C36.878 36.8522 36.8524 37.1351 36.8018 37.3133C36.7255 37.5817 36.559 37.7634 36.3019 37.8586C36.2347 37.883 36.1354 37.9098 36.0035 37.9392V37.9832C36.568 38.0198 36.8446 38.3456 36.8329 38.9604V39.9599H35.7223V39.1802C35.7363 38.6897 35.5302 38.4519 35.1045 38.4664H33.9974V39.9599H32.9014ZM33.998 37.4891H35.1363C35.3767 37.4891 35.5412 37.4402 35.6291 37.3427C35.6894 37.2743 35.7287 37.1756 35.747 37.0463C35.7564 36.9733 35.761 36.8425 35.761 36.6548C35.761 36.4035 35.731 36.2277 35.6708 36.1276C35.5992 36.0105 35.4198 35.9517 35.1328 35.9517H33.998V37.4891Z" fill="url(#paint7_linear_11691_6016)"/>
<path d="M38.6098 35.915V37.0059H40.7199V37.8222H38.6098V39.0082H40.8829V39.9599H37.5132V34.9634H40.8514V35.915H38.6098Z" fill="url(#paint8_linear_11691_6016)"/>
<path d="M44.3842 39.0518H42.5138L42.2535 39.9596H41.1152L42.6145 34.9634H44.2558L45.7758 39.9596H44.6584L44.3842 39.0518ZM44.1551 38.2064L43.4506 35.8309L42.7601 38.2064H44.1551Z" fill="url(#paint9_linear_11691_6016)"/>
<path d="M47.2436 34.9634V38.9604H49.3397V39.9599H46.147V34.9634H47.2436Z" fill="url(#paint10_linear_11691_6016)"/>
<path d="M52.6157 35.915V37.0059H54.7257V37.8222H52.6157V39.0082H54.8887V39.9599H51.519V34.9634H54.8573V35.915H52.6157Z" fill="url(#paint11_linear_11691_6016)"/>
<path d="M59.1917 36.4715H58.1472C58.1472 36.4374 58.1472 36.4106 58.1472 36.3908C58.1472 36.1809 58.109 36.0357 58.0328 35.9553C57.9448 35.8601 57.7274 35.8127 57.3804 35.8127C56.9524 35.8127 56.6922 35.8627 56.5996 35.9629C56.5187 36.0508 56.4782 36.1972 56.4782 36.4022C56.4782 36.5608 56.5047 36.6816 56.558 36.7646C56.6182 36.8598 56.7626 36.9172 56.9917 36.9367C57.0403 36.9416 57.2578 36.9562 57.6441 36.9806C58.0421 37.0074 58.3151 37.038 58.463 37.072C58.8217 37.1576 59.0645 37.3259 59.1917 37.5771C59.2796 37.7503 59.3236 38.031 59.3236 38.419C59.3236 38.8071 59.2889 39.0962 59.2194 39.2866C59.0921 39.6307 58.8039 39.849 58.3553 39.9419C58.1609 39.9809 57.8371 40.0004 57.3836 40.0004C56.7658 40.0004 56.3379 39.9602 56.0994 39.8796C55.7524 39.7626 55.5338 39.5343 55.4436 39.1952C55.3996 39.0193 55.3763 38.7413 55.3743 38.3605H56.4188C56.4188 38.4068 56.4188 38.4423 56.4188 38.4668C56.4188 38.7107 56.4697 38.8793 56.5713 38.9719C56.6339 39.0304 56.7367 39.0671 56.8802 39.0816C56.9358 39.0866 57.137 39.0889 57.484 39.0889C57.6692 39.0889 57.8028 39.081 57.8849 39.065C57.967 39.0493 58.036 39.0182 58.0913 38.9716C58.1932 38.8863 58.2441 38.7177 58.2441 38.4665C58.2441 38.2543 58.2025 38.1128 58.1192 38.042C58.0499 37.9835 57.9189 37.9457 57.7271 37.9285C57.6878 37.9236 57.4922 37.9102 57.1408 37.8883C56.7591 37.8616 56.4954 37.8348 56.3495 37.8077C55.9679 37.7393 55.7064 37.5856 55.5652 37.3466C55.445 37.1416 55.3847 36.822 55.3847 36.3876C55.3847 35.8068 55.5131 35.4202 55.7699 35.2272C55.9687 35.0758 56.2246 34.9856 56.5367 34.9565C56.7865 34.9346 57.0642 34.9236 57.3696 34.9236C57.9271 34.9236 58.3192 34.9675 58.546 35.0555C58.7981 35.1556 58.9763 35.3277 59.0805 35.5716C59.1568 35.7521 59.1949 35.9827 59.1949 36.2633C59.1952 36.3166 59.194 36.3862 59.1917 36.4715Z" fill="url(#paint12_linear_11691_6016)"/>
<path d="M61.9647 35.9628V39.9599H60.8681V35.9628H59.5874V34.9634H63.3077V35.9628H61.9647Z" fill="url(#paint13_linear_11691_6016)"/>
<path d="M66.1982 39.0518H64.3277L64.0675 39.9596H62.9292L64.4285 34.9634H66.0698L67.5897 39.9596H66.4724L66.1982 39.0518ZM65.9694 38.2064L65.2649 35.8309L64.5743 38.2064H65.9694Z" fill="url(#paint14_linear_11691_6016)"/>
<path d="M69.5853 35.9628V39.9599H68.4886V35.9628H67.208V34.9634H70.9282V35.9628H69.5853Z" fill="url(#paint15_linear_11691_6016)"/>
<path d="M72.4235 35.915V37.0059H74.5336V37.8222H72.4235V39.0082H74.6966V39.9599H71.3269V34.9634H74.6652V35.915H72.4235Z" fill="url(#paint16_linear_11691_6016)"/>
<path d="M78.1843 35.915V37.0059H80.294V37.8222H78.1843V39.0082H80.4573V39.9599H77.0876V34.9634H80.4259V35.915H78.1843Z" fill="url(#paint17_linear_11691_6016)"/>
<path d="M85.295 34.9634L83.9174 37.3867L85.3782 39.9598H84.1186L83.4973 38.7703C83.437 38.6556 83.3296 38.4312 83.1745 38.097L83.0702 37.8737H83.0528L82.9451 38.097C82.7832 38.4388 82.6732 38.6644 82.6155 38.7741L81.9908 39.9601H80.7L82.1887 37.3869L80.8007 34.9637H82.0778L82.6539 36.0618C82.7119 36.1692 82.8103 36.3718 82.9488 36.6693L83.0426 36.8708H83.06L83.1538 36.6693C83.2857 36.3864 83.3829 36.1837 83.4452 36.0618L84.0248 34.9637H85.295V34.9634Z" fill="url(#paint18_linear_11691_6016)"/>
<path d="M88.4181 38.1222H89.5008C89.5008 38.2052 89.5008 38.2591 89.5008 38.2832C89.4985 38.7738 89.4592 39.1056 89.3829 39.2789C89.258 39.5522 89.0428 39.7499 88.7375 39.8719C88.5893 39.933 88.3951 39.9694 88.1544 39.9816C87.9599 39.9938 87.7229 40 87.4429 40C87.0889 40 86.8356 39.9901 86.6828 39.9706C86.5302 39.9511 86.3867 39.9109 86.2525 39.8497C85.8429 39.6643 85.5908 39.3275 85.4959 38.8396C85.4403 38.5613 85.4126 37.9685 85.4126 37.0605C85.4126 36.5505 85.4519 36.1639 85.5305 35.9001C85.6184 35.6099 85.7966 35.3767 86.065 35.2012C86.2848 35.0574 86.5739 34.9706 86.9325 34.9412C87.0874 34.929 87.3523 34.9229 87.7273 34.9229C88.1322 34.9229 88.4167 34.9435 88.5808 34.9852C89.0341 35.0999 89.3095 35.3866 89.4067 35.8454C89.4391 36.0017 89.46 36.2824 89.4693 36.6873H88.3867C88.3797 36.4067 88.352 36.2224 88.3034 36.1345C88.2548 36.0442 88.1622 35.9819 88.0257 35.9479C87.9238 35.9234 87.7584 35.9112 87.5293 35.9112C87.1014 35.9112 86.8295 35.9735 86.7139 36.0978C86.6213 36.2026 86.5669 36.4029 86.5509 36.6981C86.5439 36.83 86.5404 37.0934 86.5404 37.4888C86.5404 37.9939 86.5555 38.3342 86.5855 38.51C86.6155 38.6832 86.6827 38.8052 86.7867 38.876C86.9186 38.9639 87.1558 39.0078 87.4982 39.0078C87.9538 39.0078 88.2303 38.9348 88.3276 38.7883C88.3902 38.6908 88.4213 38.5298 88.4213 38.3051C88.4216 38.2515 88.4204 38.1907 88.4181 38.1222Z" fill="url(#paint19_linear_11691_6016)"/>
<path d="M94.0883 34.9634V39.9596H92.9917V37.9098H91.0761V39.9596H89.9795V34.9634H91.0761V36.9217H92.9917V34.9634H94.0883Z" fill="url(#paint20_linear_11691_6016)"/>
<path d="M97.7289 39.0518H95.8585L95.5982 39.9596H94.46L95.9592 34.9634H97.6006L99.1205 39.9596H98.0032L97.7289 39.0518ZM97.4998 38.2064L96.7953 35.8309L96.1048 38.2064H97.4998Z" fill="url(#paint21_linear_11691_6016)"/>
<path d="M104.058 34.9634V39.9596H102.212L101.167 37.5439C101.068 37.3095 100.915 36.9118 100.709 36.3506L100.564 35.9514H100.522C100.548 36.642 100.561 37.1703 100.564 37.5363V39.9593H99.4915V34.9634H101.327L102.313 37.2766C102.472 37.6548 102.692 38.2099 102.972 38.9421H103.01L102.996 38.554C102.98 38.1537 102.972 37.7671 102.972 37.3936V34.9634H104.058Z" fill="url(#paint22_linear_11691_6016)"/>
<path d="M106.741 37.2181H108.854C108.866 37.5427 108.872 37.8807 108.872 38.232C108.872 38.6737 108.838 38.9887 108.771 39.1764C108.656 39.4984 108.446 39.7232 108.143 39.8498C107.992 39.9156 107.784 39.9572 107.518 39.9741C107.291 39.991 107.032 39.9997 106.741 39.9997C106.389 39.9997 106.124 39.9887 105.946 39.9668C105.768 39.945 105.608 39.9022 105.467 39.8387C105.116 39.6827 104.873 39.4067 104.739 39.0114C104.658 38.7697 104.617 38.4271 104.617 37.9828C104.617 37.373 104.625 36.9019 104.642 36.57C104.672 35.9575 104.861 35.5194 105.211 35.2559C105.442 35.0827 105.716 34.9814 106.033 34.952C106.269 34.9325 106.568 34.9226 106.929 34.9226C107.493 34.9226 107.882 34.9593 108.095 35.0324C108.421 35.1447 108.637 35.3508 108.744 35.651C108.81 35.8414 108.848 36.1209 108.854 36.4891H107.754C107.738 36.2891 107.701 36.15 107.643 36.0719C107.588 35.9989 107.494 35.9488 107.362 35.9217C107.256 35.8973 107.075 35.885 106.818 35.885C106.505 35.885 106.279 35.9118 106.137 35.9657C105.936 36.0388 105.813 36.2 105.77 36.4489C105.747 36.5832 105.735 36.8932 105.735 37.3788C105.735 37.7718 105.741 38.0658 105.753 38.2609C105.769 38.5074 105.81 38.6807 105.877 38.7805C105.956 38.9025 106.1 38.9782 106.308 39.0073C106.449 39.0268 106.599 39.0367 106.759 39.0367C107.085 39.0367 107.319 39.0111 107.46 38.9598C107.675 38.8792 107.783 38.6364 107.783 38.2315C107.783 38.1901 107.78 38.1252 107.776 38.0376H106.742V37.2181H106.741Z" fill="url(#paint23_linear_11691_6016)"/>
<path d="M110.537 35.915V37.0059H112.647V37.8222H110.537V39.0082H112.81V39.9599H109.44V34.9634H112.779V35.915H110.537Z" fill="url(#paint24_linear_11691_6016)"/>
<path fill-rule="evenodd" clip-rule="evenodd" d="M36.9137 28.0639C34.8563 28.0639 32.7993 28.0639 30.7419 28.0639C30.7428 27.9864 30.7443 27.9087 30.7443 27.8313C30.7443 19.9711 30.7443 12.1106 30.7443 4.25037C30.7443 4.18254 30.7428 4.11471 30.7419 4.04688C37.263 4.04688 43.7841 4.04688 50.3051 4.04688C50.3925 4.06725 50.4789 4.09229 50.5672 4.10772C51.3555 4.24571 52.0926 4.51354 52.745 4.98573C53.6402 5.63376 54.1651 6.53128 54.4687 7.57407C54.7939 8.6908 54.8967 9.83722 54.9019 10.9935C54.906 11.8561 54.8952 12.719 54.8716 13.5813C54.8516 14.314 54.7505 15.0389 54.5546 15.7466C54.2187 16.9603 53.4949 17.8404 52.32 18.3321C52.1363 18.4089 51.9631 18.5102 51.7651 18.6101C52.111 18.7711 52.4289 18.9123 52.7409 19.066C53.0961 19.2409 53.4158 19.4674 53.6725 19.7731C54.4143 20.6552 54.7136 21.7023 54.7482 22.8261C54.7802 23.863 54.7546 24.9017 54.7552 25.9399C54.7558 26.6479 54.7578 27.3562 54.759 28.0642C52.7307 28.0642 50.7028 28.0642 48.6746 28.0642C48.6737 26.8517 48.6711 25.6389 48.6726 24.4263C48.6731 24.0162 48.6137 23.6167 48.4987 23.2231C48.3552 22.7323 48.1101 22.3265 47.6219 22.1087C47.2085 21.9242 46.7704 21.8395 46.3229 21.8368C44.1116 21.8243 41.9 21.8211 39.6886 21.8162C38.8202 21.8141 37.9521 21.8156 37.0837 21.8162C37.0319 21.8162 36.98 21.8211 36.9163 21.8246C36.9163 21.891 36.9163 21.9437 36.9163 21.9961C36.9163 23.0147 36.9166 24.0333 36.9163 25.052C36.9163 26.0557 36.9148 27.0598 36.9137 28.0639ZM36.9169 15.8052C36.9981 15.8052 37.0557 15.8052 37.1134 15.8052C40.2083 15.8052 43.3029 15.8069 46.3977 15.8025C46.6915 15.8022 46.9873 15.779 47.2787 15.7402C48.1453 15.6247 48.7072 15.098 48.8743 14.241C49.0603 13.2884 49.0551 12.3333 48.8443 11.3854C48.7086 10.7755 48.3366 10.3796 47.7223 10.2122C47.2606 10.0864 46.7899 10.0311 46.3165 10.0294C43.2414 10.0174 40.1666 10.0168 37.0915 10.0081C36.9527 10.0078 36.9137 10.0433 36.914 10.1842C36.9186 11.9985 36.9172 13.8124 36.9172 15.6267C36.9169 15.6785 36.9169 15.7309 36.9169 15.8052Z" fill="url(#paint25_linear_11691_6016)"/>
<path fill-rule="evenodd" clip-rule="evenodd" d="M58.8932 4.04663C66.0498 4.04663 73.2067 4.04663 80.3633 4.0478C80.4069 4.0478 80.4506 4.06614 80.4943 4.07574C80.489 4.15726 80.4797 4.23877 80.4794 4.32057C80.4785 6.00586 80.4785 7.69143 80.4794 9.37672C80.4794 9.45357 80.489 9.53043 80.4943 9.60699C80.4943 9.6265 80.4943 9.64571 80.4943 9.66521C80.4276 9.6722 80.3609 9.68559 80.2943 9.68559C75.287 9.68647 70.28 9.68647 65.2728 9.68647C65.207 9.68647 65.1415 9.68647 65.0626 9.68647C65.0626 9.76157 65.0626 9.81398 65.0626 9.86638C65.0626 10.963 65.0626 12.0594 65.0626 13.156C65.0626 13.3784 65.0626 13.3784 65.287 13.3784C68.8678 13.3784 72.4486 13.3784 76.0291 13.3784C76.0902 13.3784 76.1513 13.3784 76.2139 13.3784C76.2139 15.1033 76.2139 16.8069 76.2139 18.5269C72.4917 18.5269 68.7825 18.5269 65.0731 18.5269C65.0731 19.7385 65.0731 20.9341 65.0731 22.1437C65.1555 22.1437 65.2271 22.1437 65.299 22.1437C70.2917 22.1437 75.2841 22.1437 80.2768 22.1443C80.3493 22.1443 80.4215 22.1507 80.494 22.1542C80.494 24.1242 80.494 26.0939 80.494 28.0639C73.2937 28.0639 66.0932 28.0639 58.8929 28.0639C58.8923 28.0397 58.8909 28.0156 58.8909 27.9911C58.8909 20.0969 58.8909 12.2026 58.8912 4.30835C58.8917 4.2213 58.8926 4.13397 58.8932 4.04663Z" fill="url(#paint26_linear_11691_6016)"/>
<path fill-rule="evenodd" clip-rule="evenodd" d="M18.1366 28.0639C15.6233 28.0639 13.1098 28.0639 10.5966 28.0639C10.5823 28.0228 10.5704 27.9803 10.5532 27.9408C10.1296 26.9728 9.70607 26.0048 9.28162 25.0374C8.66008 23.6214 8.03709 22.2063 7.41613 20.79C6.94132 19.7068 6.46941 18.6223 5.9946 17.5391C5.48077 16.3673 4.96462 15.1965 4.4508 14.0244C3.97598 12.9412 3.50437 11.8568 3.02985 10.7735C2.5789 9.74382 2.12621 8.71471 1.67381 7.68561C1.32273 6.88707 0.971927 6.08824 0.6188 5.29058C0.434522 4.87486 0.245295 4.46118 0.0581055 4.04663C2.28021 4.04663 4.50261 4.04663 6.72472 4.04663C7.04932 4.77734 7.37916 5.50601 7.69764 6.23933C8.12035 7.21283 8.53344 8.1907 8.95236 9.16595C9.56459 10.591 10.1786 12.0151 10.7908 13.4404C11.2135 14.4247 11.633 15.4104 12.0554 16.3947C12.6897 17.8736 13.3241 19.3522 13.9605 20.8302C14.0749 21.096 14.1998 21.3574 14.3401 21.6657C14.4236 21.5516 14.4926 21.4782 14.5366 21.3923C14.5937 21.2808 14.6274 21.1577 14.6772 21.0418C15.0778 20.1114 15.4801 19.1819 15.8807 18.2517C16.4906 16.8363 17.1005 15.4209 17.7086 14.0046C18.1715 12.9269 18.6306 11.8477 19.0938 10.77C19.6009 9.59011 20.1089 8.41049 20.6198 7.23205C21.0804 6.16947 21.5456 5.10834 22.0085 4.04663C24.2405 4.04663 26.4722 4.04663 28.7042 4.04663C28.6873 4.07603 28.6681 4.10427 28.6541 4.13484C28.3409 4.83352 28.0256 5.53163 27.7161 6.23206C27.2931 7.18954 26.8754 8.14965 26.4541 9.10801C25.984 10.1773 25.5115 11.2454 25.0419 12.3147C24.5741 13.3796 24.1086 14.4454 23.6413 15.5106C23.1625 16.6023 22.6827 17.6937 22.2038 18.7851C21.8457 19.6017 21.4888 20.4185 21.1302 21.2348C20.6644 22.2951 20.1968 23.3548 19.7305 24.415C19.3674 25.24 19.0047 26.0654 18.6431 26.891C18.4725 27.2814 18.3054 27.6729 18.1366 28.0639Z" fill="url(#paint27_linear_11691_6016)"/>
<path d="M93.9833 16.0261L80.6689 32.0813H89.2569L102.571 16.0261H93.9833Z" fill="url(#paint28_linear_11691_6016)"/>
<path d="M107.252 0L93.9441 16.0406H102.528L115.836 0H107.252Z" fill="url(#paint29_linear_11691_6016)"/>
<path d="M92.2539 3.95923H83.6682L93.9517 16.0407H102.538L92.2539 3.95923Z" fill="url(#paint30_linear_11691_6016)"/>
<path d="M102.528 16.0405H93.9446L104.262 28.0346H112.845L102.528 16.0405Z" fill="url(#paint31_linear_11691_6016)"/>
<defs>
<linearGradient id="paint0_linear_11691_6016" x1="2.27995" y1="39.9597" x2="2.27995" y2="34.9634" gradientUnits="userSpaceOnUse">
<stop stop-color="#440656"/>
<stop offset="1" stop-color="#8D18AF"/>
</linearGradient>
<linearGradient id="paint1_linear_11691_6016" x1="5.49327" y1="39.9597" x2="5.49327" y2="34.9634" gradientUnits="userSpaceOnUse">
<stop stop-color="#440656"/>
<stop offset="1" stop-color="#8D18AF"/>
</linearGradient>
<linearGradient id="paint2_linear_11691_6016" x1="8.48288" y1="39.9597" x2="8.48288" y2="34.9634" gradientUnits="userSpaceOnUse">
<stop stop-color="#440656"/>
<stop offset="1" stop-color="#8D18AF"/>
</linearGradient>
<linearGradient id="paint3_linear_11691_6016" x1="12.3331" y1="39.9597" x2="12.3331" y2="34.9634" gradientUnits="userSpaceOnUse">
<stop stop-color="#440656"/>
<stop offset="1" stop-color="#8D18AF"/>
</linearGradient>
<linearGradient id="paint4_linear_11691_6016" x1="16.9209" y1="39.9597" x2="16.9209" y2="34.9634" gradientUnits="userSpaceOnUse">
<stop stop-color="#440656"/>
<stop offset="1" stop-color="#8D18AF"/>
</linearGradient>
<linearGradient id="paint5_linear_11691_6016" x1="21.9197" y1="39.9597" x2="21.9197" y2="34.9634" gradientUnits="userSpaceOnUse">
<stop stop-color="#440656"/>
<stop offset="1" stop-color="#8D18AF"/>
</linearGradient>
<linearGradient id="paint6_linear_11691_6016" x1="27.4738" y1="39.9597" x2="27.4738" y2="34.9634" gradientUnits="userSpaceOnUse">
<stop stop-color="#440656"/>
<stop offset="1" stop-color="#8D18AF"/>
</linearGradient>
<linearGradient id="paint7_linear_11691_6016" x1="34.8897" y1="39.9597" x2="34.8897" y2="34.9634" gradientUnits="userSpaceOnUse">
<stop stop-color="#440656"/>
<stop offset="1" stop-color="#8D18AF"/>
</linearGradient>
<linearGradient id="paint8_linear_11691_6016" x1="39.1979" y1="39.9597" x2="39.1979" y2="34.9634" gradientUnits="userSpaceOnUse">
<stop stop-color="#440656"/>
<stop offset="1" stop-color="#8D18AF"/>
</linearGradient>
<linearGradient id="paint9_linear_11691_6016" x1="43.4455" y1="39.9597" x2="43.4455" y2="34.9634" gradientUnits="userSpaceOnUse">
<stop stop-color="#440656"/>
<stop offset="1" stop-color="#8D18AF"/>
</linearGradient>
<linearGradient id="paint10_linear_11691_6016" x1="47.7435" y1="39.9597" x2="47.7435" y2="34.9634" gradientUnits="userSpaceOnUse">
<stop stop-color="#440656"/>
<stop offset="1" stop-color="#8D18AF"/>
</linearGradient>
<linearGradient id="paint11_linear_11691_6016" x1="53.2039" y1="39.9597" x2="53.2039" y2="34.9634" gradientUnits="userSpaceOnUse">
<stop stop-color="#440656"/>
<stop offset="1" stop-color="#8D18AF"/>
</linearGradient>
<linearGradient id="paint12_linear_11691_6016" x1="57.3491" y1="40.0001" x2="57.3491" y2="34.9232" gradientUnits="userSpaceOnUse">
<stop stop-color="#440656"/>
<stop offset="1" stop-color="#8D18AF"/>
</linearGradient>
<linearGradient id="paint13_linear_11691_6016" x1="61.4475" y1="39.9597" x2="61.4475" y2="34.9634" gradientUnits="userSpaceOnUse">
<stop stop-color="#440656"/>
<stop offset="1" stop-color="#8D18AF"/>
</linearGradient>
<linearGradient id="paint14_linear_11691_6016" x1="65.2596" y1="39.9597" x2="65.2596" y2="34.9634" gradientUnits="userSpaceOnUse">
<stop stop-color="#440656"/>
<stop offset="1" stop-color="#8D18AF"/>
</linearGradient>
<linearGradient id="paint15_linear_11691_6016" x1="69.0681" y1="39.9597" x2="69.0681" y2="34.9634" gradientUnits="userSpaceOnUse">
<stop stop-color="#440656"/>
<stop offset="1" stop-color="#8D18AF"/>
</linearGradient>
<linearGradient id="paint16_linear_11691_6016" x1="73.0119" y1="39.9597" x2="73.0119" y2="34.9634" gradientUnits="userSpaceOnUse">
<stop stop-color="#440656"/>
<stop offset="1" stop-color="#8D18AF"/>
</linearGradient>
<linearGradient id="paint17_linear_11691_6016" x1="78.7726" y1="39.9597" x2="78.7726" y2="34.9634" gradientUnits="userSpaceOnUse">
<stop stop-color="#440656"/>
<stop offset="1" stop-color="#8D18AF"/>
</linearGradient>
<linearGradient id="paint18_linear_11691_6016" x1="83.0393" y1="39.9597" x2="83.0393" y2="34.9634" gradientUnits="userSpaceOnUse">
<stop stop-color="#440656"/>
<stop offset="1" stop-color="#8D18AF"/>
</linearGradient>
<linearGradient id="paint19_linear_11691_6016" x1="87.4569" y1="39.9999" x2="87.4569" y2="34.9231" gradientUnits="userSpaceOnUse">
<stop stop-color="#440656"/>
<stop offset="1" stop-color="#8D18AF"/>
</linearGradient>
<linearGradient id="paint20_linear_11691_6016" x1="92.034" y1="39.9597" x2="92.034" y2="34.9634" gradientUnits="userSpaceOnUse">
<stop stop-color="#440656"/>
<stop offset="1" stop-color="#8D18AF"/>
</linearGradient>
<linearGradient id="paint21_linear_11691_6016" x1="96.7901" y1="39.9597" x2="96.7901" y2="34.9634" gradientUnits="userSpaceOnUse">
<stop stop-color="#440656"/>
<stop offset="1" stop-color="#8D18AF"/>
</linearGradient>
<linearGradient id="paint22_linear_11691_6016" x1="101.775" y1="39.9597" x2="101.775" y2="34.9634" gradientUnits="userSpaceOnUse">
<stop stop-color="#440656"/>
<stop offset="1" stop-color="#8D18AF"/>
</linearGradient>
<linearGradient id="paint23_linear_11691_6016" x1="106.744" y1="40" x2="106.744" y2="34.9231" gradientUnits="userSpaceOnUse">
<stop stop-color="#440656"/>
<stop offset="1" stop-color="#8D18AF"/>
</linearGradient>
<linearGradient id="paint24_linear_11691_6016" x1="111.125" y1="39.9597" x2="111.125" y2="34.9634" gradientUnits="userSpaceOnUse">
<stop stop-color="#440656"/>
<stop offset="1" stop-color="#8D18AF"/>
</linearGradient>
<linearGradient id="paint25_linear_11691_6016" x1="42.8226" y1="28.0639" x2="42.8226" y2="4.04658" gradientUnits="userSpaceOnUse">
<stop stop-color="#440656"/>
<stop offset="1" stop-color="#8D18AF"/>
</linearGradient>
<linearGradient id="paint26_linear_11691_6016" x1="69.6928" y1="28.0639" x2="69.6928" y2="4.04663" gradientUnits="userSpaceOnUse">
<stop stop-color="#440656"/>
<stop offset="1" stop-color="#8D18AF"/>
</linearGradient>
<linearGradient id="paint27_linear_11691_6016" x1="14.3813" y1="28.0639" x2="14.3813" y2="4.04663" gradientUnits="userSpaceOnUse">
<stop stop-color="#440656"/>
<stop offset="1" stop-color="#8D18AF"/>
</linearGradient>
<linearGradient id="paint28_linear_11691_6016" x1="91.6202" y1="32.0813" x2="91.6202" y2="16.0261" gradientUnits="userSpaceOnUse">
<stop stop-color="#440656"/>
<stop offset="0.8" stop-color="#8D18AF"/>
</linearGradient>
<linearGradient id="paint29_linear_11691_6016" x1="104.89" y1="16.0406" x2="104.89" y2="0" gradientUnits="userSpaceOnUse">
<stop stop-color="#F37506"/>
<stop offset="1" stop-color="#FFC600"/>
</linearGradient>
<linearGradient id="paint30_linear_11691_6016" x1="93.1029" y1="16.0407" x2="93.1029" y2="3.95923" gradientUnits="userSpaceOnUse">
<stop stop-color="#440656"/>
<stop offset="0.8" stop-color="#8D18AF"/>
</linearGradient>
<linearGradient id="paint31_linear_11691_6016" x1="103.395" y1="28.0346" x2="103.395" y2="16.0405" gradientUnits="userSpaceOnUse">
<stop stop-color="#F37506"/>
<stop offset="1" stop-color="#FFC600"/>
</linearGradient>
</defs>
</svg>
