<svg width="30" height="27" viewBox="0 0 30 27" fill="none" xmlns="http://www.w3.org/2000/svg">
<path d="M0.333252 23.7757C0.333252 24.043 0.690666 24.2153 0.920221 24.0784C1.82801 23.5371 3.87689 22.6667 7.66658 22.6667C13.1666 22.6667 16.8333 26.3333 22.3333 26.3333C27.1328 26.3333 29.1402 24.9372 29.5736 24.5816C29.6351 24.5312 29.6666 24.4553 29.6666 24.3757V3.22427C29.6666 2.957 29.3092 2.7847 29.0796 2.92159C28.1718 3.46292 26.123 4.33334 22.3333 4.33334C16.8333 4.33334 13.1666 0.666672 7.66658 0.666672C2.86702 0.666672 0.859674 2.06278 0.42624 2.41838C0.364727 2.46884 0.333252 2.5447 0.333252 2.62427V23.7757Z" fill="url(#paint0_linear_11541_2554)"/>
<path d="M8.96833 10.6582C9.20056 10.6582 9.39 10.7346 9.53667 10.8874C9.68944 11.0402 9.76583 11.2388 9.76583 11.4832V16.3874C9.76583 16.6379 9.6925 16.8396 9.54583 16.9924C9.39917 17.1452 9.20972 17.2216 8.9775 17.2216C8.7025 17.2216 8.49472 17.1299 8.35417 16.9466L5.5675 13.4724V16.3874C5.5675 16.6379 5.49722 16.8396 5.35667 16.9924C5.21611 17.1452 5.02667 17.2216 4.78833 17.2216C4.55611 17.2216 4.36667 17.1452 4.22 16.9924C4.07333 16.8396 4 16.6379 4 16.3874V11.4832C4 11.2388 4.07333 11.0402 4.22 10.8874C4.36667 10.7346 4.55611 10.6582 4.78833 10.6582C5.05111 10.6582 5.25583 10.7499 5.4025 10.9332L8.18917 14.3982V11.4832C8.18917 11.2327 8.25945 11.0341 8.4 10.8874C8.54667 10.7346 8.73611 10.6582 8.96833 10.6582Z" fill="url(#paint1_linear_11541_2554)"/>
<path d="M12.0835 17.1666C11.8329 17.1666 11.6404 17.0993 11.506 16.9649C11.3716 16.8304 11.3043 16.6379 11.3043 16.3874V11.4832C11.3043 11.2327 11.3716 11.0402 11.506 10.9057C11.6404 10.7713 11.8329 10.7041 12.0835 10.7041H15.2552C15.5179 10.7041 15.7166 10.7591 15.851 10.8691C15.9854 10.9791 16.0527 11.1379 16.0527 11.3457C16.0527 11.7857 15.7868 12.0057 15.2552 12.0057H12.9452V13.2341H15.0718C15.6035 13.2341 15.8693 13.451 15.8693 13.8849C15.8693 14.0927 15.8021 14.2516 15.6677 14.3616C15.5332 14.4716 15.3346 14.5266 15.0718 14.5266H12.9452V15.8649H15.2552C15.7868 15.8649 16.0527 16.0849 16.0527 16.5249C16.0527 16.7327 15.9854 16.8916 15.851 17.0016C15.7166 17.1116 15.5179 17.1666 15.2552 17.1666H12.0835Z" fill="url(#paint2_linear_11541_2554)"/>
<path d="M25.123 11.1716C25.1841 11.0004 25.2819 10.8691 25.4163 10.7774C25.5569 10.6857 25.7097 10.6399 25.8747 10.6399C26.0763 10.6399 26.2505 10.7041 26.3972 10.8324C26.55 10.9607 26.6263 11.1349 26.6263 11.3549C26.6263 11.4527 26.6019 11.5749 26.553 11.7216L24.7105 16.7082C24.6494 16.8793 24.5363 17.0138 24.3713 17.1116C24.2125 17.2032 24.0352 17.2491 23.8397 17.2491C23.6441 17.2491 23.4669 17.2032 23.308 17.1116C23.1491 17.0138 23.0391 16.8793 22.978 16.7082L21.7863 13.3074L20.5397 16.7082C20.4725 16.8793 20.3594 17.0138 20.2005 17.1116C20.0416 17.2032 19.8675 17.2491 19.678 17.2491C19.4825 17.2491 19.3052 17.2032 19.1463 17.1116C18.9875 17.0138 18.8775 16.8793 18.8163 16.7082L16.9647 11.7216C16.9219 11.5993 16.9005 11.4832 16.9005 11.3732C16.9005 11.1471 16.98 10.9699 17.1388 10.8416C17.3038 10.7071 17.4933 10.6399 17.7072 10.6399C17.8783 10.6399 18.0341 10.6857 18.1747 10.7774C18.3213 10.8629 18.4252 10.9943 18.4863 11.1716L19.7422 14.7832L21.0713 11.1716C21.1325 11.0004 21.2302 10.8691 21.3647 10.7774C21.5052 10.6857 21.658 10.6399 21.823 10.6399C21.988 10.6399 22.1377 10.6857 22.2722 10.7774C22.4066 10.8691 22.5044 11.0035 22.5655 11.1807L23.8122 14.8657L25.123 11.1716Z" fill="url(#paint3_linear_11541_2554)"/>
<defs>
<linearGradient id="paint0_linear_11541_2554" x1="14.9999" y1="0.666672" x2="14.9999" y2="26.3333" gradientUnits="userSpaceOnUse">
<stop stop-color="#8D18AF"/>
<stop offset="1" stop-color="#440656"/>
</linearGradient>
<linearGradient id="paint1_linear_11541_2554" x1="15.3132" y1="10.6399" x2="15.3132" y2="17.2491" gradientUnits="userSpaceOnUse">
<stop stop-color="#FFC600"/>
<stop offset="1" stop-color="#F37506"/>
</linearGradient>
<linearGradient id="paint2_linear_11541_2554" x1="15.3132" y1="10.6399" x2="15.3132" y2="17.2491" gradientUnits="userSpaceOnUse">
<stop stop-color="#FFC600"/>
<stop offset="1" stop-color="#F37506"/>
</linearGradient>
<linearGradient id="paint3_linear_11541_2554" x1="15.3132" y1="10.6399" x2="15.3132" y2="17.2491" gradientUnits="userSpaceOnUse">
<stop stop-color="#FFC600"/>
<stop offset="1" stop-color="#F37506"/>
</linearGradient>
</defs>
</svg>
