<svg width="148" height="36" viewBox="0 0 148 36" fill="none" xmlns="http://www.w3.org/2000/svg">
<path d="M143 36H0V0H136.19L122.571 15.13L143 36Z" fill="url(#paint0_linear_10822_76081)"/>
<path d="M29.076 13.465C29.924 13.465 30.664 13.629 31.296 13.957C31.928 14.277 32.412 14.737 32.748 15.337C33.092 15.929 33.264 16.629 33.264 17.437C33.264 18.381 33.076 19.189 32.7 19.861C32.324 20.533 31.78 21.045 31.068 21.397C30.364 21.749 29.516 21.925 28.524 21.925H24.972L25.236 18.493H24.252L24.384 16.825H25.368L25.632 13.465H29.076ZM28.332 20.149C29.26 20.149 29.948 19.933 30.396 19.501C30.844 19.061 31.068 18.369 31.068 17.425C31.068 16.713 30.872 16.173 30.48 15.805C30.088 15.429 29.52 15.241 28.776 15.241H27.708L27.576 16.825H29.784L29.64 18.493H27.444L27.312 20.149H28.332ZM40.4773 21.925L39.8533 20.173H36.0973L35.2093 21.925H32.9533L37.5613 13.465H39.3133L42.6133 21.925H40.4773ZM36.9373 18.517H39.2773L38.3053 15.805L36.9373 18.517ZM49.2582 13.465H51.3222L50.6502 21.925H49.0062L45.5622 17.173L45.1662 21.925H43.1142L43.7862 13.465H45.3942L48.8742 18.241L49.2582 13.465ZM60.0563 17.149L59.7323 21.361C59.3163 21.577 58.8243 21.745 58.2563 21.865C57.6963 21.977 57.0923 22.033 56.4443 22.033C55.5963 22.033 54.8603 21.869 54.2363 21.541C53.6203 21.205 53.1443 20.729 52.8083 20.113C52.4723 19.489 52.3043 18.761 52.3043 17.929C52.3043 17.009 52.4923 16.205 52.8683 15.517C53.2443 14.829 53.7763 14.297 54.4643 13.921C55.1603 13.545 55.9723 13.357 56.9003 13.357C58.1963 13.357 59.2323 13.665 60.0083 14.281L59.2043 15.841C58.8363 15.569 58.4803 15.373 58.1363 15.253C57.7923 15.133 57.3883 15.081 56.9243 15.097C56.1563 15.113 55.5643 15.373 55.1483 15.877C54.7403 16.373 54.5363 17.061 54.5363 17.941C54.5363 18.725 54.7203 19.325 55.0883 19.741C55.4563 20.149 56.0163 20.353 56.7683 20.353C57.1043 20.353 57.4643 20.305 57.8483 20.209L57.9683 18.661H56.4683L56.6003 17.149H60.0563ZM70.5955 17.557C71.0275 17.685 71.3635 17.929 71.6035 18.289C71.8435 18.641 71.9635 19.053 71.9635 19.525C71.9635 20.293 71.6755 20.885 71.0995 21.301C70.5315 21.717 69.7635 21.925 68.7955 21.925H64.5595L65.2195 13.465H69.1915C70.1195 13.465 70.8275 13.665 71.3155 14.065C71.8115 14.457 72.0595 14.969 72.0595 15.601C72.0595 16.065 71.9395 16.461 71.6995 16.789C71.4595 17.109 71.0915 17.365 70.5955 17.557ZM68.6515 16.789C69.1155 16.789 69.4435 16.729 69.6355 16.609C69.8355 16.481 69.9355 16.261 69.9355 15.949C69.9355 15.677 69.8435 15.473 69.6595 15.337C69.4835 15.201 69.1955 15.133 68.7955 15.133H67.2475L67.1155 16.789H68.6515ZM68.6035 20.257C69.0755 20.257 69.4115 20.189 69.6115 20.053C69.8195 19.917 69.9235 19.681 69.9235 19.345C69.9235 19.049 69.8275 18.829 69.6355 18.685C69.4515 18.533 69.1555 18.457 68.7475 18.457H66.9835L66.8395 20.257H68.6035ZM79.4187 21.925L78.7947 20.173H75.0387L74.1507 21.925H71.8947L76.5027 13.465H78.2547L81.5547 21.925H79.4187ZM75.8787 18.517H78.2187L77.2467 15.805L75.8787 18.517ZM78.0867 12.745H76.7907L78.1227 10.861H80.1387L78.0867 12.745ZM88.1996 13.465H90.2636L89.5916 21.925H87.9476L84.5036 17.173L84.1076 21.925H82.0556L82.7276 13.465H84.3356L87.8156 18.241L88.1996 13.465Z" fill="white"/>
<path d="M129.82 15.13H115L132.82 35.85H147.65L129.82 15.13Z" fill="url(#paint1_linear_10822_76081)"/>
<path fill-rule="evenodd" clip-rule="evenodd" d="M127.55 0L115 15.13H129.82L142.38 0H127.55Z" fill="#FFC600"/>
<defs>
<linearGradient id="paint0_linear_10822_76081" x1="0" y1="18" x2="143" y2="18" gradientUnits="userSpaceOnUse">
<stop stop-color="#8D18AF"/>
<stop offset="1" stop-color="#F37506"/>
</linearGradient>
<linearGradient id="paint1_linear_10822_76081" x1="131.325" y1="15.13" x2="131.325" y2="35.85" gradientUnits="userSpaceOnUse">
<stop stop-color="#FFC600"/>
<stop offset="1" stop-color="#F37506"/>
</linearGradient>
</defs>
</svg>
