<svg width="155" height="45" viewBox="0 0 155 45" fill="none" xmlns="http://www.w3.org/2000/svg">
<path d="M34.56 5V15.8H40.672V17H33.2V5H34.56ZM43.2739 8.6V17H42.0099V8.6H43.2739ZM43.2739 5V6.392H42.0099V5H43.2739ZM51.2554 14.456H52.5514V14.76C52.5514 15.7627 52.1887 16.4293 51.4634 16.76C50.9727 16.984 50.1407 17.096 48.9674 17.096C47.3887 17.096 46.3487 16.7813 45.8474 16.152C45.41 15.5973 45.1914 14.4827 45.1914 12.808C45.1914 11.1653 45.41 10.0613 45.8474 9.496C46.3594 8.83467 47.3994 8.504 48.9674 8.504C50.3967 8.504 51.3514 8.76 51.8314 9.272C52.3114 9.784 52.5514 10.7707 52.5514 12.232V13.08H46.5034C46.5034 14.3493 46.6047 15.1387 46.8074 15.448C47.0954 15.864 47.8154 16.072 48.9674 16.072C49.8847 16.072 50.482 16.0027 50.7594 15.864C51.09 15.704 51.2554 15.3413 51.2554 14.776V14.456ZM46.5034 12.056H51.2394C51.2074 10.8827 51.0687 10.168 50.8234 9.912C50.578 9.656 49.9594 9.528 48.9674 9.528C47.9007 9.528 47.218 9.70933 46.9194 10.072C46.6954 10.3493 46.5567 11.0107 46.5034 12.056ZM48.9674 6.024L51.3354 7.656L51.0154 8.072L48.9674 7.048L46.8554 8.072L46.5514 7.656L48.9674 6.024ZM55.7743 8.6V9.624H55.8063C56.1049 8.87733 56.9689 8.504 58.3983 8.504C59.5289 8.504 60.3289 8.696 60.7983 9.08C61.3103 9.51733 61.5663 10.296 61.5663 11.416V17H60.3023V11.32C60.3023 10.584 60.1423 10.0933 59.8223 9.848C59.5556 9.63467 59.0436 9.528 58.2863 9.528C57.2729 9.528 56.6009 9.70933 56.2703 10.072C55.9396 10.4347 55.7743 11.112 55.7743 12.104V17H54.5103V8.6H55.7743ZM70.5711 5V9.624H70.6031C70.9018 8.87733 71.7658 8.504 73.1951 8.504C74.3258 8.504 75.1258 8.696 75.5951 9.08C76.1071 9.51733 76.3631 10.296 76.3631 11.416V17H75.0991V11.32C75.0991 10.584 74.9391 10.0933 74.6191 9.848C74.3525 9.63467 73.8405 9.528 73.0831 9.528C72.0698 9.528 71.3978 9.70933 71.0671 10.072C70.7365 10.4347 70.5711 11.112 70.5711 12.104V17H69.3071V5H70.5711ZM84.3804 14.456H85.6764V14.76C85.6764 15.7627 85.3137 16.4293 84.5884 16.76C84.0977 16.984 83.2657 17.096 82.0924 17.096C80.5137 17.096 79.4737 16.7813 78.9724 16.152C78.535 15.5973 78.3164 14.4827 78.3164 12.808C78.3164 11.1653 78.535 10.0613 78.9724 9.496C79.4844 8.83467 80.5244 8.504 82.0924 8.504C83.5217 8.504 84.4764 8.76 84.9564 9.272C85.4364 9.784 85.6764 10.7707 85.6764 12.232V13.08H79.6284C79.6284 14.3493 79.7297 15.1387 79.9324 15.448C80.2204 15.864 80.9404 16.072 82.0924 16.072C83.0097 16.072 83.607 16.0027 83.8844 15.864C84.215 15.704 84.3804 15.3413 84.3804 14.776V14.456ZM79.6284 12.056H84.3644C84.3324 10.8827 84.1937 10.168 83.9484 9.912C83.703 9.656 83.0844 9.528 82.0924 9.528C81.0257 9.528 80.343 9.70933 80.0444 10.072C79.8204 10.3493 79.6817 11.0107 79.6284 12.056ZM82.0924 6.024L84.4604 7.656L84.1404 8.072L82.0924 7.048L79.9804 8.072L79.6764 7.656L82.0924 6.024ZM82.7804 17.832V19.048H81.3724V17.832L82.0924 17.816L82.7804 17.832ZM94.4149 5V9.624H94.4469C94.7455 8.87733 95.6095 8.504 97.0389 8.504C98.1695 8.504 98.9695 8.696 99.4389 9.08C99.9509 9.51733 100.207 10.296 100.207 11.416V17H98.9429V11.32C98.9429 10.584 98.7829 10.0933 98.4629 9.848C98.1962 9.63467 97.6842 9.528 96.9269 9.528C95.9135 9.528 95.2415 9.70933 94.9109 10.072C94.5802 10.4347 94.4149 11.112 94.4149 12.104V17H93.1509V5H94.4149ZM103.472 12.808C103.472 14.1627 103.557 14.9947 103.728 15.304C103.995 15.816 104.715 16.072 105.888 16.072C107.061 16.072 107.781 15.816 108.048 15.304C108.219 14.9947 108.304 14.1627 108.304 12.808C108.304 11.8053 108.283 11.1813 108.24 10.936C108.165 10.424 107.968 10.0667 107.648 9.864C107.296 9.64 106.709 9.528 105.888 9.528C105.067 9.528 104.485 9.63467 104.144 9.848C103.813 10.0613 103.611 10.424 103.536 10.936C103.493 11.1813 103.472 11.8053 103.472 12.808ZM107.584 8.632H108.544C108.832 8.52533 108.976 8.34933 108.976 8.104C108.976 7.98667 108.939 7.864 108.864 7.736L109.216 7.48C109.301 7.416 109.371 7.4 109.424 7.432C109.627 7.56 109.728 7.74667 109.728 7.992C109.728 8.32267 109.563 8.59467 109.232 8.808C109.04 8.936 108.816 9 108.56 9C109.04 9.30933 109.355 9.89067 109.504 10.744C109.579 11.1813 109.616 11.8693 109.616 12.808C109.616 14.4933 109.413 15.6027 109.008 16.136C108.528 16.776 107.488 17.096 105.888 17.096C104.288 17.096 103.248 16.776 102.768 16.136C102.363 15.6027 102.16 14.4933 102.16 12.808C102.16 11.112 102.363 9.99733 102.768 9.464C103.248 8.824 104.288 8.504 105.888 8.504C106.603 8.504 107.168 8.54667 107.584 8.632ZM106.576 17.832V19.048H105.168V17.832L105.888 17.816L106.576 17.832ZM115.157 9.528C114.058 9.528 113.365 9.79467 113.077 10.328C112.874 10.6907 112.773 11.5173 112.773 12.808C112.773 13.9707 112.89 14.76 113.125 15.176C113.445 15.7733 114.122 16.072 115.157 16.072C116.128 16.072 116.757 15.8693 117.045 15.464C117.333 15.0587 117.477 14.1733 117.477 12.808C117.477 11.4747 117.36 10.616 117.125 10.232C116.837 9.76267 116.181 9.528 115.157 9.528ZM112.773 8.6V9.624L112.805 9.656C113.21 8.888 114.112 8.504 115.509 8.504C116.906 8.504 117.834 8.90933 118.293 9.72C118.624 10.2853 118.789 11.3147 118.789 12.808C118.789 14.4613 118.554 15.592 118.085 16.2C117.616 16.7973 116.757 17.096 115.509 17.096C114.058 17.096 113.157 16.7333 112.805 16.008H112.773V20.632H111.509V8.6H112.773ZM130.677 8.6V9.624H127.429V14.952C127.429 15.4 127.509 15.6987 127.669 15.848C127.829 15.9973 128.143 16.072 128.613 16.072C129.146 16.072 129.493 15.9333 129.653 15.656C129.749 15.4853 129.797 15.1493 129.797 14.648V14.024H130.997V14.648C130.997 15.4907 130.805 16.1093 130.421 16.504C130.047 16.8987 129.434 17.096 128.581 17.096C127.61 17.096 126.965 16.9253 126.645 16.584C126.325 16.232 126.165 15.56 126.165 14.568V9.624H125.045V8.6H126.165V6.568H127.429V8.6H130.677ZM135.208 16.072C136.04 16.072 136.621 16.0027 136.952 15.864C137.485 15.64 137.752 15.1867 137.752 14.504C137.752 13.7893 137.528 13.3307 137.08 13.128C136.792 13 136.168 12.936 135.208 12.936C134.397 12.936 133.859 13.0107 133.592 13.16C133.261 13.3413 133.096 13.752 133.096 14.392C133.096 15.1387 133.267 15.6187 133.608 15.832C133.864 15.992 134.397 16.072 135.208 16.072ZM139.048 17H137.784V16.136L137.752 16.104C137.539 16.52 137.149 16.8027 136.584 16.952C136.211 17.048 135.677 17.096 134.984 17.096C133.917 17.096 133.149 16.9467 132.68 16.648C132.083 16.264 131.784 15.5653 131.784 14.552C131.784 13.4747 132.072 12.744 132.648 12.36C133.096 12.0613 133.901 11.912 135.064 11.912C136.696 11.912 137.576 12.1947 137.704 12.76H137.784V11.208C137.784 10.4933 137.587 10.0187 137.192 9.784C136.904 9.61333 136.355 9.528 135.544 9.528C134.851 9.528 134.36 9.576 134.072 9.672C133.592 9.832 133.352 10.168 133.352 10.68V10.968H132.04V10.792C132.04 9.81067 132.365 9.16 133.016 8.84C133.464 8.616 134.259 8.504 135.4 8.504C136.669 8.504 137.544 8.64267 138.024 8.92C138.707 9.31467 139.048 10.0987 139.048 11.272V17ZM136.552 5.352H138.152L135.656 7.304H135.208L136.552 5.352ZM146.941 13.96H148.205V14.424C148.205 15.512 147.858 16.2533 147.165 16.648C146.653 16.9467 145.81 17.096 144.637 17.096C143.005 17.096 141.949 16.744 141.469 16.04C141.096 15.496 140.909 14.36 140.909 12.632C140.909 11.1387 141.117 10.1093 141.533 9.544C142.034 8.85067 143 8.504 144.429 8.504C145.645 8.504 146.504 8.64267 147.005 8.92C147.709 9.29333 148.061 10.024 148.061 11.112V11.336H146.797V11.08C146.797 10.3867 146.6 9.93867 146.205 9.736C145.928 9.59733 145.362 9.528 144.509 9.528C143.453 9.528 142.792 9.768 142.525 10.248C142.322 10.6107 142.221 11.5227 142.221 12.984C142.221 14.264 142.338 15.0747 142.573 15.416C142.882 15.8533 143.618 16.072 144.781 16.072C145.624 16.072 146.184 15.9813 146.461 15.8C146.781 15.576 146.941 15.1013 146.941 14.376V13.96ZM152.043 15.368V17H150.619V15.368H152.043ZM152.043 8.6V10.232H150.619V8.6H152.043Z" fill="white"/>
<path d="M34.368 29V33.624H34.4C34.6987 32.8773 35.5627 32.504 36.992 32.504C38.1227 32.504 38.9227 32.696 39.392 33.08C39.904 33.5173 40.16 34.296 40.16 35.416V41H38.896V35.32C38.896 34.584 38.736 34.0933 38.416 33.848C38.1493 33.6347 37.6373 33.528 36.88 33.528C35.8667 33.528 35.1947 33.7093 34.864 34.072C34.5333 34.4347 34.368 35.112 34.368 36.104V41H33.104V29H34.368ZM42.1133 36.808C42.1133 35.0267 42.3426 33.864 42.8013 33.32C43.2706 32.776 44.2839 32.504 45.8413 32.504C47.3986 32.504 48.4066 32.776 48.8653 33.32C49.3346 33.864 49.5693 35.0267 49.5693 36.808C49.5693 38.5787 49.3346 39.736 48.8653 40.28C48.4066 40.824 47.3986 41.096 45.8413 41.096C44.2839 41.096 43.2706 40.824 42.8013 40.28C42.3426 39.736 42.1133 38.5787 42.1133 36.808ZM43.4253 36.808C43.4253 38.28 43.5479 39.192 43.7933 39.544C44.0493 39.896 44.7319 40.072 45.8413 40.072C46.9506 40.072 47.6279 39.896 47.8733 39.544C48.1293 39.192 48.2573 38.28 48.2573 36.808C48.2573 35.3253 48.1293 34.408 47.8733 34.056C47.6279 33.704 46.9506 33.528 45.8413 33.528C44.7319 33.528 44.0493 33.704 43.7933 34.056C43.5479 34.408 43.4253 35.3253 43.4253 36.808ZM55.1102 33.528C54.0116 33.528 53.3183 33.7947 53.0303 34.328C52.8276 34.6907 52.7263 35.5173 52.7263 36.808C52.7263 37.9707 52.8436 38.76 53.0783 39.176C53.3983 39.7733 54.0756 40.072 55.1102 40.072C56.0809 40.072 56.7103 39.8693 56.9983 39.464C57.2863 39.0587 57.4303 38.1733 57.4303 36.808C57.4303 35.4747 57.3129 34.616 57.0783 34.232C56.7903 33.7627 56.1343 33.528 55.1102 33.528ZM52.7263 32.6V33.624L52.7582 33.656C53.1636 32.888 54.0649 32.504 55.4623 32.504C56.8596 32.504 57.7876 32.9093 58.2463 33.72C58.5769 34.2853 58.7423 35.3147 58.7423 36.808C58.7423 38.4613 58.5076 39.592 58.0383 40.2C57.5689 40.7973 56.7103 41.096 55.4623 41.096C54.0116 41.096 53.1103 40.7333 52.7582 40.008H52.7263V44.632H51.4622V32.6H52.7263ZM65.1141 32.6V33.624H61.8661V38.952C61.8661 39.4 61.9461 39.6987 62.1061 39.848C62.2661 39.9973 62.5808 40.072 63.0501 40.072C63.5835 40.072 63.9301 39.9333 64.0901 39.656C64.1861 39.4853 64.2341 39.1493 64.2341 38.648V38.024H65.4341V38.648C65.4341 39.4907 65.2421 40.1093 64.8581 40.504C64.4848 40.8987 63.8715 41.096 63.0181 41.096C62.0475 41.096 61.4021 40.9253 61.0821 40.584C60.7621 40.232 60.6021 39.56 60.6021 38.568V33.624H59.4821V32.6H60.6021V30.568H61.8661V32.6H65.1141ZM69.6455 40.072C70.4775 40.072 71.0588 40.0027 71.3895 39.864C71.9228 39.64 72.1895 39.1867 72.1895 38.504C72.1895 37.7893 71.9655 37.3307 71.5175 37.128C71.2295 37 70.6055 36.936 69.6455 36.936C68.8242 36.936 68.2855 37.0107 68.0295 37.16C67.6988 37.3413 67.5335 37.752 67.5335 38.392C67.5335 39.1387 67.7042 39.6187 68.0455 39.832C68.2908 39.992 68.8242 40.072 69.6455 40.072ZM73.4855 41H72.2215V40.136L72.1895 40.104C71.9762 40.5307 71.5868 40.8133 71.0215 40.952C70.6695 41.048 70.1362 41.096 69.4215 41.096C68.3548 41.096 67.5868 40.9467 67.1175 40.648C66.5202 40.264 66.2215 39.5653 66.2215 38.552C66.2215 37.4747 66.5095 36.744 67.0855 36.36C67.5335 36.0613 68.3388 35.912 69.5015 35.912C71.1335 35.912 72.0135 36.1947 72.1415 36.76H72.2215V35.208C72.2215 34.4933 72.0242 34.0187 71.6295 33.784C71.3415 33.6133 70.7922 33.528 69.9815 33.528C69.2882 33.528 68.7975 33.576 68.5095 33.672C68.0295 33.832 67.7895 34.168 67.7895 34.68V34.968H66.4775V34.792C66.4775 33.8107 66.8028 33.16 67.4535 32.84C67.9015 32.616 68.6962 32.504 69.8375 32.504C71.0855 32.504 71.9602 32.6427 72.4615 32.92C73.1442 33.3253 73.4855 34.1093 73.4855 35.272V41ZM81.3785 37.96H82.6425V38.424C82.6425 39.512 82.2958 40.2533 81.6025 40.648C81.0905 40.9467 80.2478 41.096 79.0745 41.096C77.4425 41.096 76.3865 40.744 75.9065 40.04C75.5332 39.496 75.3465 38.36 75.3465 36.632C75.3465 35.1387 75.5545 34.1093 75.9705 33.544C76.4718 32.8507 77.4372 32.504 78.8665 32.504C80.0825 32.504 80.9412 32.6427 81.4425 32.92C82.1465 33.2933 82.4985 34.024 82.4985 35.112V35.336H81.2345V35.08C81.2345 34.3867 81.0372 33.9387 80.6425 33.736C80.3652 33.5973 79.7998 33.528 78.9465 33.528C77.8905 33.528 77.2292 33.768 76.9625 34.248C76.7598 34.6107 76.6585 35.5227 76.6585 36.984C76.6585 38.264 76.7758 39.0747 77.0105 39.416C77.3198 39.8533 78.0558 40.072 79.2185 40.072C80.0612 40.072 80.6212 39.9813 80.8985 39.8C81.2185 39.576 81.3785 39.1013 81.3785 38.376V37.96ZM93.6009 32.2H94.7369L93.3129 36.68C93.2915 36.7547 93.2809 36.824 93.2809 36.888C93.2809 37.2187 93.5795 37.384 94.1769 37.384C94.8702 37.384 95.4302 36.968 95.8569 36.136C96.2302 35.432 96.4169 34.6533 96.4169 33.8C96.4169 32.6693 95.8782 31.7253 94.8009 30.968C93.8089 30.2747 92.6942 29.9333 91.4569 29.944C90.0275 29.9547 88.7635 30.5253 87.6649 31.656C86.5769 32.7867 86.0542 34.0667 86.0969 35.496C86.1395 36.8187 86.6675 37.9173 87.6809 38.792C88.6622 39.6453 89.8302 40.0667 91.1849 40.056C91.9635 40.056 92.8595 39.896 93.8729 39.576L94.2729 40.504C93.2382 40.888 92.2195 41.0853 91.2169 41.096C89.4995 41.1173 88.0222 40.6053 86.7849 39.56C85.4835 38.4507 84.8542 37.0533 84.8969 35.368C84.9395 33.64 85.6115 32.1307 86.9129 30.84C88.2249 29.5493 89.7342 28.904 91.4409 28.904C92.9769 28.904 94.3422 29.3147 95.5369 30.136C96.8702 31.064 97.5369 32.248 97.5369 33.688C97.5369 34.8613 97.2115 35.9067 96.5609 36.824C95.8355 37.8373 94.9182 38.344 93.8089 38.344C92.8595 38.344 92.3369 37.9973 92.2409 37.304C91.5902 37.9547 90.9555 38.2907 90.3369 38.312C89.6329 38.3333 89.0569 38.0667 88.6089 37.512C88.1929 36.9893 88.0009 36.3707 88.0329 35.656C88.0755 34.7067 88.4275 33.8533 89.0889 33.096C89.7502 32.3387 90.5502 31.9333 91.4889 31.88C91.8729 31.8587 92.2409 31.9707 92.5929 32.216C92.9555 32.4507 93.1849 32.7493 93.2809 33.112H93.3129L93.6009 32.2ZM92.8009 33.88C92.7689 33.5493 92.6355 33.2933 92.4009 33.112C92.1769 32.9307 91.8995 32.84 91.5689 32.84C90.9075 32.84 90.3475 33.16 89.8889 33.8C89.4835 34.376 89.2649 35.0107 89.2329 35.704C89.2115 36.12 89.3395 36.5093 89.6169 36.872C89.9049 37.2347 90.2569 37.416 90.6729 37.416C91.3129 37.416 91.8569 36.9627 92.3049 36.056C92.6995 35.256 92.8649 34.5307 92.8009 33.88ZM106.453 32.6L103.637 41H101.861L99.0766 32.6H100.357L102.741 40.04H102.773L105.077 32.6H106.453ZM107.319 32.6H108.551L108.487 33.64L108.519 33.672C108.881 32.8933 109.676 32.504 110.903 32.504C112.46 32.504 113.239 33.2933 113.239 34.872V35.48H112.039V34.92C112.039 34.3973 111.932 34.0347 111.719 33.832C111.516 33.6293 111.153 33.528 110.631 33.528C109.873 33.528 109.34 33.7093 109.031 34.072C108.732 34.424 108.583 34.9893 108.583 35.768V41H107.319V32.6ZM120.365 38.456H121.661V38.76C121.661 39.7627 121.298 40.4293 120.573 40.76C120.093 40.984 119.261 41.096 118.077 41.096C116.498 41.096 115.458 40.7813 114.957 40.152C114.519 39.5973 114.301 38.4827 114.301 36.808C114.301 35.0693 114.551 33.9173 115.053 33.352C115.554 32.7867 116.562 32.504 118.077 32.504C119.474 32.504 120.413 32.7387 120.893 33.208C121.405 33.7093 121.661 34.7173 121.661 36.232V37.08H115.613C115.613 38.424 115.741 39.2613 115.997 39.592C116.263 39.912 116.957 40.072 118.077 40.072C118.994 40.072 119.591 40.0027 119.869 39.864C120.199 39.704 120.365 39.3413 120.365 38.776V38.456ZM115.613 36.056H120.349C120.317 34.8933 120.173 34.1733 119.917 33.896C119.671 33.6507 119.058 33.528 118.077 33.528C116.999 33.528 116.317 33.7093 116.029 34.072C115.805 34.3387 115.666 35 115.613 36.056ZM129.524 32.6L126.852 36.616L129.844 41H128.324L126.148 37.608L123.972 41H122.452L125.492 36.616L122.772 32.6H124.196L126.148 35.672L128.052 32.6H129.524ZM132.965 39.368V41H131.541V39.368H132.965ZM142.609 32.6L139.793 41H138.017L135.233 32.6H136.513L138.897 40.04H138.929L141.233 32.6H142.609ZM144.915 32.6V33.624H144.947C145.246 32.8773 146.11 32.504 147.539 32.504C148.67 32.504 149.47 32.696 149.939 33.08C150.451 33.5173 150.707 34.296 150.707 35.416V41H149.443V35.32C149.443 34.584 149.283 34.0933 148.963 33.848C148.696 33.6347 148.184 33.528 147.427 33.528C146.414 33.528 145.742 33.7093 145.411 34.072C145.08 34.4347 144.915 35.112 144.915 36.104V41H143.651V32.6H144.915Z" fill="#FFC600"/>
<path d="M14.6667 6L8.00001 10.6667L1.33334 6" stroke="#FFC600" stroke-width="1.5" stroke-linecap="round" stroke-linejoin="round"/>
<path d="M2.66668 4.66669H13.3333C14.0667 4.66669 14.6667 5.26669 14.6667 6.00002V14C14.6667 14.7334 14.0667 15.3334 13.3333 15.3334H2.66668C1.93334 15.3334 1.33334 14.7334 1.33334 14V6.00002C1.33334 5.26669 1.93334 4.66669 2.66668 4.66669Z" stroke="white" stroke-width="1.5" stroke-linecap="round" stroke-linejoin="round"/>
</svg>
