<svg width="175" height="44" viewBox="0 0 175 44" fill="none" xmlns="http://www.w3.org/2000/svg">
<path d="M42.88 5V17H41.52V11.48H34.496V17H33.136V5H34.496V10.28H41.52V5H42.88ZM44.832 12.808C44.832 11.112 45.0347 9.99733 45.44 9.464C45.92 8.824 46.96 8.504 48.56 8.504C50.16 8.504 51.2 8.824 51.68 9.464C52.0853 9.99733 52.288 11.112 52.288 12.808C52.288 14.4933 52.0853 15.6027 51.68 16.136C51.2 16.776 50.16 17.096 48.56 17.096C46.96 17.096 45.92 16.776 45.44 16.136C45.0347 15.6027 44.832 14.4933 44.832 12.808ZM46.144 12.808C46.144 14.1627 46.2293 14.9947 46.4 15.304C46.6667 15.816 47.3867 16.072 48.56 16.072C49.7333 16.072 50.4533 15.816 50.72 15.304C50.8907 14.9947 50.976 14.1627 50.976 12.808C50.976 11.8053 50.9547 11.1813 50.912 10.936C50.8373 10.424 50.64 10.0667 50.32 9.864C49.968 9.64 49.3813 9.528 48.56 9.528C47.7387 9.528 47.1573 9.63467 46.816 9.848C46.4853 10.0613 46.2827 10.424 46.208 10.936C46.1653 11.1813 46.144 11.8053 46.144 12.808ZM48.56 6.024L50.912 7.64L50.592 8.072L48.56 7.032L46.432 8.072L46.144 7.64L48.56 6.024ZM46.528 5.544H45.808C46.448 4.53067 47.0987 4.00267 47.76 3.96C48.1227 3.93867 48.3253 3.94933 48.368 3.992L49.328 4.632C49.424 4.728 49.5627 4.776 49.744 4.776C50.1067 4.776 50.3947 4.49867 50.608 3.944H51.296C51.136 4.30667 50.864 4.648 50.48 4.968C50.064 5.32 49.6747 5.50133 49.312 5.512C48.928 5.52267 48.6773 5.48533 48.56 5.4L47.776 4.824C47.7333 4.70667 47.632 4.648 47.472 4.648C47.3013 4.648 47.1147 4.76 46.912 4.984C46.7413 5.16533 46.6133 5.352 46.528 5.544ZM64.1766 8.6V9.624H60.9286V14.952C60.9286 15.4 61.0086 15.6987 61.1686 15.848C61.3286 15.9973 61.6433 16.072 62.1126 16.072C62.646 16.072 62.9926 15.9333 63.1526 15.656C63.2486 15.4853 63.2966 15.1493 63.2966 14.648V14.024H64.4966V14.648C64.4966 15.4907 64.3046 16.1093 63.9206 16.504C63.5473 16.8987 62.934 17.096 62.0806 17.096C61.11 17.096 60.4646 16.9253 60.1446 16.584C59.8246 16.232 59.6646 15.56 59.6646 14.568V9.624H58.5446V8.6H59.6646V6.568H60.9286V8.6H64.1766ZM65.428 8.6H66.66L66.596 9.64L66.628 9.672C66.9907 8.89333 67.7853 8.504 69.012 8.504C70.5693 8.504 71.348 9.29333 71.348 10.872V11.48H70.148V10.92C70.148 10.3973 70.0413 10.0347 69.828 9.832C69.6253 9.62933 69.2627 9.528 68.74 9.528C67.9827 9.528 67.4493 9.70933 67.14 10.072C66.8413 10.424 66.692 10.9893 66.692 11.768V17H65.428V8.6ZM73.7221 12.808C73.7221 14.1627 73.8075 14.9947 73.9781 15.304C74.2448 15.816 74.9648 16.072 76.1381 16.072C77.3115 16.072 78.0315 15.816 78.2981 15.304C78.4688 14.9947 78.5541 14.1627 78.5541 12.808C78.5541 11.8053 78.5328 11.1813 78.4901 10.936C78.4155 10.424 78.2181 10.0667 77.8981 9.864C77.5461 9.64 76.9595 9.528 76.1381 9.528C75.3168 9.528 74.7355 9.63467 74.3941 9.848C74.0635 10.0613 73.8608 10.424 73.7861 10.936C73.7435 11.1813 73.7221 11.8053 73.7221 12.808ZM77.8341 8.632H78.7941C79.0821 8.52533 79.2261 8.34933 79.2261 8.104C79.2261 7.98667 79.1888 7.864 79.1141 7.736L79.4661 7.48C79.5515 7.416 79.6208 7.4 79.6741 7.432C79.8768 7.56 79.9781 7.74667 79.9781 7.992C79.9781 8.32267 79.8128 8.59467 79.4821 8.808C79.2901 8.936 79.0661 9 78.8101 9C79.2901 9.30933 79.6048 9.89067 79.7541 10.744C79.8288 11.1813 79.8661 11.8693 79.8661 12.808C79.8661 14.4933 79.6635 15.6027 79.2581 16.136C78.7781 16.776 77.7381 17.096 76.1381 17.096C74.5381 17.096 73.4981 16.776 73.0181 16.136C72.6128 15.6027 72.4101 14.4933 72.4101 12.808C72.4101 11.112 72.6128 9.99733 73.0181 9.464C73.4981 8.824 74.5381 8.504 76.1381 8.504C76.8528 8.504 77.4181 8.54667 77.8341 8.632ZM76.8261 17.832V19.048H75.4181V17.832L76.1381 17.816L76.8261 17.832ZM88.5868 8.6V9.624H88.6188C88.9174 8.87733 89.7814 8.504 91.2108 8.504C92.3414 8.504 93.1414 8.696 93.6108 9.08C94.1228 9.51733 94.3788 10.296 94.3788 11.416V17H93.1148V11.32C93.1148 10.584 92.9548 10.0933 92.6348 9.848C92.3681 9.63467 91.8561 9.528 91.0988 9.528C90.0854 9.528 89.4134 9.70933 89.0828 10.072C88.7521 10.4347 88.5868 11.112 88.5868 12.104V17H87.3228V8.6H88.5868ZM99.932 16.072C101.031 16.072 101.74 15.7627 102.06 15.144C102.263 14.7493 102.364 13.9707 102.364 12.808C102.364 11.528 102.241 10.6907 101.996 10.296C101.687 9.784 100.999 9.528 99.932 9.528C98.8653 9.528 98.188 9.8 97.9 10.344C97.7187 10.696 97.628 11.5173 97.628 12.808C97.628 14.0773 97.708 14.872 97.868 15.192C98.1453 15.7787 98.8333 16.072 99.932 16.072ZM103.628 8.6V17.992C103.628 19.0267 103.265 19.7627 102.54 20.2C101.953 20.552 101.084 20.728 99.932 20.728C98.78 20.728 97.9587 20.5787 97.468 20.28C96.8173 19.864 96.5187 19.1013 96.572 17.992H97.836C97.836 18.7387 98.0173 19.224 98.38 19.448C98.6467 19.6187 99.164 19.704 99.932 19.704C100.796 19.704 101.388 19.608 101.708 19.416C102.145 19.16 102.364 18.6533 102.364 17.896V15.96H102.332C102.076 16.7173 101.175 17.096 99.628 17.096C98.3267 17.096 97.436 16.7387 96.956 16.024C96.5293 15.416 96.316 14.344 96.316 12.808C96.316 11.272 96.508 10.2053 96.892 9.608C97.3613 8.872 98.2733 8.504 99.628 8.504C101.047 8.504 101.948 8.89333 102.332 9.672L102.364 9.656V8.6H103.628ZM112.672 9V17H111.392V15.88H111.36C111.008 16.6907 110.133 17.096 108.736 17.096C107.637 17.096 106.859 16.856 106.4 16.376C105.952 15.896 105.728 15.1013 105.728 13.992V8.6H106.992V13.992C106.992 14.76 107.077 15.2773 107.248 15.544C107.472 15.896 107.963 16.072 108.72 16.072C109.691 16.072 110.363 15.9387 110.736 15.672C111.184 15.3413 111.408 14.712 111.408 13.784V8.6L112.672 8.632C112.949 8.52533 113.088 8.34933 113.088 8.104C113.088 7.98667 113.051 7.864 112.976 7.736L113.328 7.48C113.413 7.416 113.483 7.4 113.536 7.432C113.739 7.56 113.84 7.74667 113.84 7.992C113.84 8.32267 113.675 8.59467 113.344 8.808C113.152 8.936 112.928 9 112.672 9ZM115.941 12.808C115.941 14.1627 116.026 14.9947 116.197 15.304C116.464 15.816 117.184 16.072 118.357 16.072C119.53 16.072 120.25 15.816 120.517 15.304C120.688 14.9947 120.773 14.1627 120.773 12.808C120.773 11.8053 120.752 11.1813 120.709 10.936C120.634 10.424 120.437 10.0667 120.117 9.864C119.765 9.64 119.178 9.528 118.357 9.528C117.536 9.528 116.954 9.63467 116.613 9.848C116.282 10.0613 116.08 10.424 116.005 10.936C115.962 11.1813 115.941 11.8053 115.941 12.808ZM120.053 8.632H121.013C121.301 8.52533 121.445 8.34933 121.445 8.104C121.445 7.98667 121.408 7.864 121.333 7.736L121.685 7.48C121.77 7.416 121.84 7.4 121.893 7.432C122.096 7.56 122.197 7.74667 122.197 7.992C122.197 8.32267 122.032 8.59467 121.701 8.808C121.509 8.936 121.285 9 121.029 9C121.509 9.30933 121.824 9.89067 121.973 10.744C122.048 11.1813 122.085 11.8693 122.085 12.808C122.085 14.4933 121.882 15.6027 121.477 16.136C120.997 16.776 119.957 17.096 118.357 17.096C116.757 17.096 115.717 16.776 115.237 16.136C114.832 15.6027 114.629 14.4933 114.629 12.808C114.629 11.112 114.832 9.99733 115.237 9.464C115.717 8.824 116.757 8.504 118.357 8.504C119.072 8.504 119.637 8.54667 120.053 8.632ZM118.565 7.304H118.117L115.621 5.352H117.221L118.565 7.304ZM125.274 8.6V17H124.01V8.6H125.274ZM125.274 5V6.392H124.01V5H125.274ZM136.355 16.072C137.326 16.072 137.955 15.8587 138.243 15.432C138.542 15.0053 138.691 14.1307 138.691 12.808C138.691 11.5707 138.558 10.7333 138.291 10.296C137.982 9.784 137.336 9.528 136.355 9.528C135.352 9.528 134.712 9.704 134.435 10.056C134.126 10.4613 133.971 11.3787 133.971 12.808C133.971 14.2053 134.142 15.112 134.483 15.528C134.782 15.8907 135.406 16.072 136.355 16.072ZM138.691 17V15.944L138.659 15.912C138.275 16.7013 137.374 17.096 135.955 17.096C134.579 17.096 133.656 16.7013 133.187 15.912C132.835 15.3253 132.659 14.2907 132.659 12.808C132.659 11.3253 132.835 10.2907 133.187 9.704C133.656 8.904 134.579 8.504 135.955 8.504C137.48 8.504 138.382 8.88267 138.659 9.64H138.691V5H139.955V17H138.691ZM147.783 17V15.88H147.751C147.399 16.6907 146.524 17.096 145.127 17.096C144.028 17.096 143.249 16.856 142.791 16.376C142.343 15.896 142.118 15.1013 142.118 13.992V8.6H143.383V13.992C143.383 14.76 143.468 15.2773 143.639 15.544C143.863 15.896 144.353 16.072 145.111 16.072C146.081 16.072 146.753 15.9387 147.127 15.672C147.575 15.3413 147.799 14.712 147.799 13.784V8.6H149.062V17H147.783ZM145.799 7.848H145.351L142.855 5.896H144.455L145.799 7.848ZM152.556 8.6V9.624H152.588C152.886 8.87733 153.75 8.504 155.18 8.504C156.31 8.504 157.11 8.696 157.58 9.08C158.092 9.51733 158.348 10.296 158.348 11.416V17H157.084V11.32C157.084 10.584 156.924 10.0933 156.604 9.848C156.337 9.63467 155.825 9.528 155.068 9.528C154.054 9.528 153.382 9.70933 153.052 10.072C152.721 10.4347 152.556 11.112 152.556 12.104V17H151.292V8.6H152.556ZM163.901 16.072C164.999 16.072 165.709 15.7627 166.029 15.144C166.231 14.7493 166.333 13.9707 166.333 12.808C166.333 11.528 166.21 10.6907 165.965 10.296C165.655 9.784 164.967 9.528 163.901 9.528C162.834 9.528 162.157 9.8 161.869 10.344C161.687 10.696 161.597 11.5173 161.597 12.808C161.597 14.0773 161.677 14.872 161.837 15.192C162.114 15.7787 162.802 16.072 163.901 16.072ZM167.597 8.6V17.992C167.597 19.0267 167.234 19.7627 166.509 20.2C165.922 20.552 165.053 20.728 163.901 20.728C162.749 20.728 161.927 20.5787 161.437 20.28C160.786 19.864 160.487 19.1013 160.541 17.992H161.805C161.805 18.7387 161.986 19.224 162.349 19.448C162.615 19.6187 163.133 19.704 163.901 19.704C164.765 19.704 165.357 19.608 165.677 19.416C166.114 19.16 166.333 18.6533 166.333 17.896V15.96H166.301C166.045 16.7173 165.143 17.096 163.597 17.096C162.295 17.096 161.405 16.7387 160.925 16.024C160.498 15.416 160.285 14.344 160.285 12.808C160.285 11.272 160.477 10.2053 160.861 9.608C161.33 8.872 162.242 8.504 163.597 8.504C165.015 8.504 165.917 8.89333 166.301 9.672L166.333 9.656V8.6H167.597ZM171.825 15.368V17H170.401V15.368H171.825ZM171.825 8.6V10.232H170.401V8.6H171.825Z" fill="white"/>
<path d="M34.368 29V33.624H34.4C34.6987 32.8773 35.5627 32.504 36.992 32.504C38.1227 32.504 38.9227 32.696 39.392 33.08C39.904 33.5173 40.16 34.296 40.16 35.416V41H38.896V35.32C38.896 34.584 38.736 34.0933 38.416 33.848C38.1493 33.6347 37.6373 33.528 36.88 33.528C35.8667 33.528 35.1947 33.7093 34.864 34.072C34.5333 34.4347 34.368 35.112 34.368 36.104V41H33.104V29H34.368ZM42.1133 36.808C42.1133 35.0267 42.3426 33.864 42.8013 33.32C43.2706 32.776 44.2839 32.504 45.8413 32.504C47.3986 32.504 48.4066 32.776 48.8653 33.32C49.3346 33.864 49.5693 35.0267 49.5693 36.808C49.5693 38.5787 49.3346 39.736 48.8653 40.28C48.4066 40.824 47.3986 41.096 45.8413 41.096C44.2839 41.096 43.2706 40.824 42.8013 40.28C42.3426 39.736 42.1133 38.5787 42.1133 36.808ZM43.4253 36.808C43.4253 38.28 43.5479 39.192 43.7933 39.544C44.0493 39.896 44.7319 40.072 45.8413 40.072C46.9506 40.072 47.6279 39.896 47.8733 39.544C48.1293 39.192 48.2573 38.28 48.2573 36.808C48.2573 35.3253 48.1293 34.408 47.8733 34.056C47.6279 33.704 46.9506 33.528 45.8413 33.528C44.7319 33.528 44.0493 33.704 43.7933 34.056C43.5479 34.408 43.4253 35.3253 43.4253 36.808ZM55.9423 32.6V33.624H52.6943V38.952C52.6943 39.4 52.7743 39.6987 52.9343 39.848C53.0943 39.9973 53.4089 40.072 53.8783 40.072C54.4116 40.072 54.7583 39.9333 54.9183 39.656C55.0143 39.4853 55.0623 39.1493 55.0623 38.648V38.024H56.2623V38.648C56.2623 39.4907 56.0703 40.1093 55.6863 40.504C55.3129 40.8987 54.6996 41.096 53.8463 41.096C52.8756 41.096 52.2303 40.9253 51.9103 40.584C51.5903 40.232 51.4303 39.56 51.4303 38.568V33.624H50.3102V32.6H51.4303V30.568H52.6943V32.6H55.9423ZM57.1936 32.6H58.4256L58.3616 33.64L58.3936 33.672C58.7563 32.8933 59.551 32.504 60.7776 32.504C62.335 32.504 63.1136 33.2933 63.1136 34.872V35.48H61.9136V34.92C61.9136 34.3973 61.807 34.0347 61.5936 33.832C61.391 33.6293 61.0283 33.528 60.5056 33.528C59.7483 33.528 59.215 33.7093 58.9056 34.072C58.607 34.424 58.4576 34.9893 58.4576 35.768V41H57.1936V32.6ZM64.1758 36.808C64.1758 35.0267 64.4051 33.864 64.8638 33.32C65.3331 32.776 66.3464 32.504 67.9038 32.504C69.4611 32.504 70.4691 32.776 70.9278 33.32C71.3971 33.864 71.6318 35.0267 71.6318 36.808C71.6318 38.5787 71.3971 39.736 70.9278 40.28C70.4691 40.824 69.4611 41.096 67.9038 41.096C66.3464 41.096 65.3331 40.824 64.8638 40.28C64.4051 39.736 64.1758 38.5787 64.1758 36.808ZM65.4878 36.808C65.4878 38.28 65.6104 39.192 65.8558 39.544C66.1118 39.896 66.7944 40.072 67.9038 40.072C69.0131 40.072 69.6904 39.896 69.9358 39.544C70.1918 39.192 70.3198 38.28 70.3198 36.808C70.3198 35.3253 70.1918 34.408 69.9358 34.056C69.6904 33.704 69.0131 33.528 67.9038 33.528C66.7944 33.528 66.1118 33.704 65.8558 34.056C65.6104 34.408 65.4878 35.3253 65.4878 36.808ZM82.7728 32.2H83.9088L82.4848 36.68C82.4634 36.7547 82.4528 36.824 82.4528 36.888C82.4528 37.2187 82.7514 37.384 83.3488 37.384C84.0421 37.384 84.6021 36.968 85.0288 36.136C85.4021 35.432 85.5888 34.6533 85.5888 33.8C85.5888 32.6693 85.0501 31.7253 83.9728 30.968C82.9808 30.2747 81.8661 29.9333 80.6288 29.944C79.1994 29.9547 77.9354 30.5253 76.8368 31.656C75.7488 32.7867 75.2261 34.0667 75.2688 35.496C75.3114 36.8187 75.8394 37.9173 76.8528 38.792C77.8341 39.6453 79.0021 40.0667 80.3568 40.056C81.1354 40.056 82.0314 39.896 83.0448 39.576L83.4448 40.504C82.4101 40.888 81.3914 41.0853 80.3888 41.096C78.6714 41.1173 77.1941 40.6053 75.9568 39.56C74.6554 38.4507 74.0261 37.0533 74.0688 35.368C74.1114 33.64 74.7834 32.1307 76.0848 30.84C77.3968 29.5493 78.9061 28.904 80.6128 28.904C82.1488 28.904 83.5141 29.3147 84.7088 30.136C86.0421 31.064 86.7088 32.248 86.7088 33.688C86.7088 34.8613 86.3834 35.9067 85.7328 36.824C85.0074 37.8373 84.0901 38.344 82.9808 38.344C82.0314 38.344 81.5088 37.9973 81.4128 37.304C80.7621 37.9547 80.1274 38.2907 79.5088 38.312C78.8048 38.3333 78.2288 38.0667 77.7808 37.512C77.3648 36.9893 77.1728 36.3707 77.2048 35.656C77.2474 34.7067 77.5994 33.8533 78.2608 33.096C78.9221 32.3387 79.7221 31.9333 80.6608 31.88C81.0448 31.8587 81.4128 31.9707 81.7648 32.216C82.1274 32.4507 82.3568 32.7493 82.4528 33.112H82.4848L82.7728 32.2ZM81.9728 33.88C81.9408 33.5493 81.8074 33.2933 81.5728 33.112C81.3488 32.9307 81.0714 32.84 80.7408 32.84C80.0794 32.84 79.5194 33.16 79.0608 33.8C78.6554 34.376 78.4368 35.0107 78.4048 35.704C78.3834 36.12 78.5114 36.5093 78.7888 36.872C79.0768 37.2347 79.4288 37.416 79.8448 37.416C80.4848 37.416 81.0288 36.9627 81.4768 36.056C81.8714 35.256 82.0368 34.5307 81.9728 33.88ZM95.6245 32.6L92.8085 41H91.0325L88.2485 32.6H89.5285L91.9125 40.04H91.9445L94.2485 32.6H95.6245ZM96.4905 32.6H97.7225L97.6585 33.64L97.6905 33.672C98.0532 32.8933 98.8478 32.504 100.075 32.504C101.632 32.504 102.411 33.2933 102.411 34.872V35.48H101.211V34.92C101.211 34.3973 101.104 34.0347 100.891 33.832C100.688 33.6293 100.325 33.528 99.8025 33.528C99.0452 33.528 98.5118 33.7093 98.2025 34.072C97.9038 34.424 97.7545 34.9893 97.7545 35.768V41H96.4905V32.6ZM109.537 38.456H110.833V38.76C110.833 39.7627 110.47 40.4293 109.745 40.76C109.265 40.984 108.433 41.096 107.249 41.096C105.67 41.096 104.63 40.7813 104.129 40.152C103.691 39.5973 103.473 38.4827 103.473 36.808C103.473 35.0693 103.723 33.9173 104.225 33.352C104.726 32.7867 105.734 32.504 107.249 32.504C108.646 32.504 109.585 32.7387 110.065 33.208C110.577 33.7093 110.833 34.7173 110.833 36.232V37.08H104.785C104.785 38.424 104.913 39.2613 105.169 39.592C105.435 39.912 106.129 40.072 107.249 40.072C108.166 40.072 108.763 40.0027 109.041 39.864C109.371 39.704 109.537 39.3413 109.537 38.776V38.456ZM104.785 36.056H109.521C109.489 34.8933 109.345 34.1733 109.089 33.896C108.843 33.6507 108.23 33.528 107.249 33.528C106.171 33.528 105.489 33.7093 105.201 34.072C104.977 34.3387 104.838 35 104.785 36.056ZM118.696 32.6L116.024 36.616L119.016 41H117.496L115.32 37.608L113.144 41H111.623L114.664 36.616L111.944 32.6H113.368L115.32 35.672L117.224 32.6H118.696ZM122.137 39.368V41H120.713V39.368H122.137ZM131.781 32.6L128.965 41H127.189L124.405 32.6H125.685L128.069 40.04H128.101L130.405 32.6H131.781ZM134.087 32.6V33.624H134.119C134.417 32.8773 135.281 32.504 136.711 32.504C137.841 32.504 138.641 32.696 139.111 33.08C139.623 33.5173 139.879 34.296 139.879 35.416V41H138.615V35.32C138.615 34.584 138.455 34.0933 138.135 33.848C137.868 33.6347 137.356 33.528 136.599 33.528C135.585 33.528 134.913 33.7093 134.583 34.072C134.252 34.4347 134.087 35.112 134.087 36.104V41H132.823V32.6H134.087Z" fill="#FFC600"/>
<path d="M14.6666 6L7.99992 10.6667L1.33325 6" stroke="#FFC600" stroke-width="1.5" stroke-linecap="round" stroke-linejoin="round"/>
<path d="M2.66659 4.66675H13.3333C14.0666 4.66675 14.6666 5.26675 14.6666 6.00008V14.0001C14.6666 14.7334 14.0666 15.3334 13.3333 15.3334H2.66659C1.93325 15.3334 1.33325 14.7334 1.33325 14.0001V6.00008C1.33325 5.26675 1.93325 4.66675 2.66659 4.66675Z" stroke="white" stroke-width="1.5" stroke-linecap="round" stroke-linejoin="round"/>
</svg>
