<svg width="140" height="48" viewBox="0 0 140 48" fill="none" xmlns="http://www.w3.org/2000/svg">
<g clip-path="url(#clip0_11434_40911)">
<path d="M4.11001 41.9561H5.47175L3.72679 47.9515H1.71143L0 41.9561H1.33658L2.1778 44.798C2.3109 45.2549 2.48592 45.9138 2.70251 46.7745H2.73989C2.9481 45.9518 3.12452 45.293 3.2688 44.798L4.11001 41.9561Z" fill="white"/>
<path d="M7.24981 41.9561V47.9515H5.93384V41.9561H7.24981Z" fill="white"/>
<path d="M9.47393 43.0981V44.407H12.006V45.3866H9.47393V46.8098H12.2016V47.9518H8.15796V41.9561H12.1639V43.0981H9.47393Z" fill="white"/>
<path d="M15.4204 43.1553V47.9518H14.1044V43.1553H12.5676V41.9561H17.0319V43.1553H15.4204Z" fill="white"/>
<path d="M23.0451 41.9561V47.9515H20.8296L19.5761 45.0526C19.4566 44.7714 19.2736 44.2942 19.0266 43.6207L18.8516 43.1417H18.8016C18.832 43.9704 18.8488 44.6044 18.8516 45.0435V47.9511H17.5649V41.9561H19.7679L20.9504 44.7319C21.1419 45.1857 21.4056 45.8519 21.7417 46.7305H21.7875L21.7707 46.2648C21.7511 45.7845 21.7417 45.3206 21.7417 44.8724V41.9561H23.0451Z" fill="white"/>
<path d="M27.4301 46.8622H25.1856L24.8733 47.9515H23.5073L25.3064 41.9561H27.276L29.0999 47.9515H27.7592L27.4301 46.8622ZM27.1555 45.8477L26.3101 42.9971L25.4815 45.8477H27.1555Z" fill="white"/>
<path d="M36.3917 41.9561V47.9515H35.0967V45.4348C35.0995 45.0659 35.1191 44.4919 35.155 43.7129L35.184 43.1375H35.1425L34.98 43.6909C34.7523 44.4493 34.5804 45.0013 34.4637 45.3468L33.5516 47.9515H32.4022L31.4779 45.3555C31.3528 44.9953 31.1781 44.4448 30.9532 43.7038L30.7865 43.1505H30.7449L30.7739 43.7216C30.8155 44.5269 30.8379 45.098 30.8407 45.4348V47.9515H29.5457V41.9561H31.6194L32.3897 44.1918C32.4979 44.508 32.6824 45.1274 32.9434 46.0497H32.9891L33.1184 45.5885C33.2906 44.9471 33.4237 44.4846 33.518 44.2006L34.2719 41.9561H36.3917Z" fill="white"/>
<path d="M39.4817 47.9518V41.9561H42.3135C42.8825 41.9561 43.2948 42.0235 43.5501 42.158C43.8554 42.319 44.0609 42.5737 44.1664 42.9223C44.2247 43.1215 44.2537 43.3995 44.2537 43.7569C44.2537 44.2226 44.223 44.5621 44.1622 44.7759C44.0706 45.098 43.8708 45.316 43.5624 45.4303C43.4817 45.4596 43.3625 45.4917 43.2043 45.527V45.5798C43.8816 45.6238 44.2135 46.0147 44.1996 46.7525V47.9518H42.8668V47.0163C42.8836 46.4276 42.6362 46.1422 42.1255 46.1597H40.797V47.9518H39.4817ZM40.7977 44.987H42.1636C42.4521 44.987 42.6495 44.9283 42.755 44.8112C42.8273 44.7291 42.8745 44.6107 42.8965 44.4556C42.9077 44.3679 42.9133 44.2111 42.9133 43.9857C42.9133 43.6843 42.8773 43.4732 42.805 43.3531C42.719 43.2126 42.5038 43.1421 42.1594 43.1421H40.7977V44.987Z" fill="white"/>
<path d="M46.3318 43.0981V44.407H48.8639V45.3866H46.3318V46.8098H49.0595V47.9518H45.0159V41.9561H49.0218V43.0981H46.3318Z" fill="white"/>
<path d="M53.2611 46.8622H51.0166L50.7043 47.9515H49.3384L51.1375 41.9561H53.1071L54.931 47.9515H53.5902L53.2611 46.8622ZM52.9862 45.8477L52.1408 42.9971L51.3122 45.8477H52.9862Z" fill="white"/>
<path d="M56.6924 41.9561V46.7525H59.2077V47.9518H55.3765V41.9561H56.6924Z" fill="white"/>
<path d="M63.1387 43.0981V44.407H65.6708V45.3866H63.1387V46.8098H65.8664V47.9518H61.8228V41.9561H65.8287V43.0981H63.1387Z" fill="white"/>
<path d="M71.0302 43.7657H69.7767C69.7767 43.7248 69.7767 43.6926 69.7767 43.6689C69.7767 43.417 69.7309 43.2427 69.6394 43.1463C69.5339 43.032 69.273 42.9751 68.8565 42.9751C68.343 42.9751 68.0307 43.0352 67.9196 43.1554C67.8225 43.2609 67.7739 43.4366 67.7739 43.6825C67.7739 43.8729 67.8057 44.0179 67.8696 44.1174C67.942 44.2317 68.1152 44.3005 68.3902 44.3239C68.4485 44.3298 68.7095 44.3473 69.173 44.3767C69.6506 44.4088 69.9783 44.4455 70.1557 44.4864C70.5861 44.5891 70.8775 44.791 71.0302 45.0925C71.1357 45.3003 71.1884 45.6371 71.1884 46.1028C71.1884 46.5684 71.1468 46.9153 71.0633 47.1438C70.9107 47.5567 70.5648 47.8187 70.0265 47.9302C69.7931 47.977 69.4047 48.0004 68.8604 48.0004C68.1191 48.0004 67.6055 47.9522 67.3194 47.8554C66.903 47.715 66.6407 47.4411 66.5324 47.0341C66.4796 46.8231 66.4517 46.4895 66.4492 46.0325H67.7027C67.7027 46.0881 67.7027 46.1307 67.7027 46.1601C67.7027 46.4528 67.7638 46.6551 67.8857 46.7662C67.9608 46.8364 68.0841 46.8804 68.2564 46.8979C68.3231 46.9038 68.5645 46.9066 68.9809 46.9066C69.2031 46.9066 69.3634 46.8972 69.462 46.878C69.5605 46.8591 69.6433 46.8217 69.7096 46.7658C69.8319 46.6635 69.893 46.4612 69.893 46.1597C69.893 45.905 69.8431 45.7353 69.7432 45.6504C69.66 45.5801 69.5028 45.5347 69.2726 45.5141C69.2254 45.5082 68.9907 45.4921 68.569 45.4659C68.111 45.4338 67.7945 45.4016 67.6195 45.3691C67.1615 45.287 66.8478 45.1026 66.6784 44.8158C66.5341 44.5698 66.4618 44.1863 66.4618 43.665C66.4618 42.9681 66.6159 42.5042 66.924 42.2726C67.1626 42.0909 67.4697 41.9826 67.8441 41.9477C68.1439 41.9215 68.4772 41.9082 68.8436 41.9082C69.5126 41.9082 69.9832 41.961 70.2553 42.0665C70.5578 42.1866 70.7716 42.3931 70.8967 42.6858C70.9882 42.9024 71.034 43.1791 71.034 43.5159C71.0343 43.5798 71.0329 43.6633 71.0302 43.7657Z" fill="white"/>
<path d="M74.3574 43.1553V47.9518H73.0414V43.1553H71.5046V41.9561H75.9689V43.1553H74.3574Z" fill="white"/>
<path d="M79.4377 46.8622H77.1931L76.8808 47.9515H75.5149L77.314 41.9561H79.2836L81.1075 47.9515H79.7667L79.4377 46.8622ZM79.1631 45.8477L78.3177 42.9971L77.489 45.8477H79.1631Z" fill="white"/>
<path d="M83.5024 43.1553V47.9518H82.1864V43.1553H80.6497V41.9561H85.1139V43.1553H83.5024Z" fill="white"/>
<path d="M86.9083 43.0981V44.407H89.4403V45.3866H86.9083V46.8098H89.6359V47.9518H85.5923V41.9561H89.5982V43.0981H86.9083Z" fill="white"/>
<path d="M93.8211 43.0981V44.407H96.3528V45.3866H93.8211V46.8098H96.5488V47.9518H92.5051V41.9561H96.511V43.0981H93.8211Z" fill="white"/>
<path d="M102.354 41.9561L100.701 44.864L102.454 47.9518H100.942L100.197 46.5244C100.124 46.3868 99.9955 46.1174 99.8093 45.7164L99.6842 45.4484H99.6632L99.534 45.7164C99.3397 46.1265 99.2077 46.3972 99.1385 46.529L98.3888 47.9522H96.8398L98.6264 44.8643L96.9607 41.9564H98.4933L99.1846 43.2741C99.2541 43.403 99.3722 43.6462 99.5385 44.0032L99.651 44.2449H99.672L99.7845 44.0032C99.9427 43.6636 100.059 43.4205 100.134 43.2741L100.83 41.9564H102.354V41.9561Z" fill="white"/>
<path d="M106.101 45.7467H107.401C107.401 45.8463 107.401 45.9109 107.401 45.9399C107.398 46.5286 107.351 46.9268 107.259 47.1347C107.109 47.4627 106.851 47.6999 106.485 47.8463C106.307 47.9197 106.074 47.9633 105.785 47.978C105.552 47.9927 105.267 48 104.931 48C104.506 48 104.202 47.9881 104.019 47.9647C103.836 47.9413 103.664 47.8931 103.503 47.8197C103.011 47.5972 102.709 47.193 102.595 46.6075C102.528 46.2736 102.495 45.5623 102.495 44.4727C102.495 43.8606 102.542 43.3967 102.636 43.0802C102.742 42.7319 102.956 42.4521 103.278 42.2414C103.542 42.0689 103.888 41.9648 104.319 41.9295C104.505 41.9148 104.823 41.9075 105.272 41.9075C105.758 41.9075 106.1 41.9323 106.297 41.9822C106.841 42.1199 107.171 42.464 107.288 43.0145C107.327 43.2021 107.352 43.5389 107.363 44.0248H106.064C106.055 43.6881 106.022 43.4669 105.964 43.3614C105.906 43.2531 105.794 43.1784 105.631 43.1375C105.508 43.1082 105.31 43.0935 105.035 43.0935C104.521 43.0935 104.195 43.1682 104.056 43.3174C103.945 43.4432 103.88 43.6835 103.861 44.0378C103.852 44.196 103.848 44.5122 103.848 44.9866C103.848 45.5927 103.866 46.0011 103.902 46.2121C103.938 46.4199 104.019 46.5663 104.144 46.6512C104.302 46.7567 104.587 46.8094 104.998 46.8094C105.544 46.8094 105.876 46.7218 105.993 46.546C106.068 46.429 106.105 46.2358 106.105 45.9661C106.106 45.9019 106.104 45.8288 106.101 45.7467Z" fill="white"/>
<path d="M112.906 41.9561V47.9515H111.59V45.4917H109.291V47.9515H107.975V41.9561H109.291V44.3061H111.59V41.9561H112.906Z" fill="white"/>
<path d="M117.275 46.8622H115.03L114.718 47.9515H113.352L115.151 41.9561H117.121L118.944 47.9515H117.604L117.275 46.8622ZM117 45.8477L116.154 42.9971L115.326 45.8477H117Z" fill="white"/>
<path d="M124.87 41.9561V47.9515H122.654L121.401 45.0526C121.282 44.7714 121.099 44.2942 120.852 43.6207L120.677 43.1417H120.627C120.657 43.9704 120.674 44.6044 120.677 45.0435V47.9511H119.39V41.9561H121.593L122.775 44.7319C122.967 45.1857 123.231 45.8519 123.567 46.7305H123.612L123.596 46.2648C123.576 45.7845 123.567 45.3206 123.567 44.8724V41.9561H124.87Z" fill="white"/>
<path d="M128.089 44.6618H130.625C130.639 45.0513 130.646 45.4569 130.646 45.8786C130.646 46.4085 130.606 46.7865 130.526 47.0118C130.387 47.3982 130.135 47.6679 129.772 47.8199C129.591 47.8988 129.341 47.9488 129.022 47.969C128.75 47.9893 128.439 47.9998 128.089 47.9998C127.667 47.9998 127.349 47.9865 127.136 47.9603C126.922 47.9341 126.73 47.8827 126.561 47.8066C126.139 47.6193 125.848 47.2882 125.686 46.8137C125.589 46.5238 125.541 46.1126 125.541 45.5795C125.541 44.8476 125.551 44.2824 125.57 43.8842C125.606 43.1491 125.834 42.6234 126.253 42.3072C126.531 42.0994 126.86 41.9778 127.24 41.9425C127.523 41.9191 127.881 41.9072 128.315 41.9072C128.992 41.9072 129.458 41.9512 129.714 42.0389C130.105 42.1738 130.365 42.4211 130.492 42.7813C130.573 43.0098 130.617 43.3451 130.625 43.787H129.305C129.286 43.547 129.241 43.3801 129.172 43.2864C129.105 43.1987 128.993 43.1387 128.835 43.1062C128.707 43.0768 128.49 43.0622 128.181 43.0622C127.807 43.0622 127.534 43.0943 127.365 43.1589C127.124 43.2466 126.976 43.4401 126.924 43.7388C126.896 43.8999 126.882 44.2719 126.882 44.8546C126.882 45.3262 126.889 45.6791 126.903 45.9131C126.922 46.209 126.972 46.4169 127.053 46.5367C127.147 46.6831 127.32 46.7739 127.569 46.8089C127.739 46.8323 127.919 46.8441 128.111 46.8441C128.503 46.8441 128.783 46.8134 128.952 46.7519C129.21 46.6551 129.34 46.3638 129.34 45.8779C129.34 45.8282 129.337 45.7503 129.331 45.6452H128.09V44.6618H128.089Z" fill="white"/>
<path d="M132.645 43.0981V44.407H135.177V45.3866H132.645V46.8098H135.372V47.9518H131.329V41.9561H135.335V43.0981H132.645Z" fill="white"/>
<path fill-rule="evenodd" clip-rule="evenodd" d="M44.2967 33.6766C41.8279 33.6766 39.3594 33.6766 36.8906 33.6766C36.8917 33.5837 36.8934 33.4904 36.8934 33.3975C36.8934 23.9652 36.8934 14.5326 36.8934 5.10039C36.8934 5.01899 36.8917 4.9376 36.8906 4.8562C44.7159 4.8562 52.5412 4.8562 60.3665 4.8562C60.4713 4.88066 60.575 4.9107 60.6809 4.92921C61.6269 5.0948 62.5114 5.4162 63.2943 5.98283C64.3685 6.76047 64.9984 7.83749 65.3628 9.08883C65.753 10.4289 65.8763 11.8046 65.8826 13.1922C65.8875 14.2273 65.8746 15.2628 65.8463 16.2975C65.8222 17.1768 65.7009 18.0467 65.4658 18.8959C65.0627 20.3523 64.1942 21.4084 62.7843 21.9984C62.5638 22.0907 62.356 22.2122 62.1184 22.3321C62.5334 22.5252 62.9149 22.6947 63.2894 22.8791C63.7156 23.0891 64.0992 23.3609 64.4073 23.7277C65.2974 24.7862 65.6566 26.0428 65.6981 27.3912C65.7366 28.6356 65.7058 29.882 65.7065 31.1278C65.7072 31.9774 65.7097 32.8273 65.7111 33.6769C63.2772 33.6769 60.8437 33.6769 58.4098 33.6769C58.4087 32.2219 58.4056 30.7666 58.4074 29.3116C58.4081 28.8193 58.3368 28.34 58.1988 27.8677C58.0266 27.2787 57.7324 26.7918 57.1466 26.5304C56.6505 26.309 56.1247 26.2073 55.5878 26.2042C52.9342 26.1891 50.2802 26.1853 47.6266 26.1794C46.5845 26.1769 45.5428 26.1787 44.5007 26.1794C44.4385 26.1794 44.3763 26.1853 44.2998 26.1895C44.2998 26.2691 44.2998 26.3324 44.2998 26.3953C44.2998 27.6176 44.3002 28.8399 44.2998 30.0623C44.2998 31.2668 44.2981 32.4717 44.2967 33.6766ZM44.3005 18.9661C44.398 18.9661 44.4672 18.9661 44.5363 18.9661C48.2502 18.9661 51.9637 18.9682 55.6776 18.963C56.0301 18.9626 56.385 18.9347 56.7347 18.8882C57.7747 18.7495 58.4489 18.1176 58.6494 17.0891C58.8727 15.9461 58.8664 14.7999 58.6135 13.6624C58.4507 12.9306 58.0042 12.4554 57.2671 12.2546C56.713 12.1037 56.1481 12.0373 55.5801 12.0352C51.89 12.0209 48.2003 12.0202 44.5101 12.0097C44.3435 12.0093 44.2967 12.052 44.297 12.221C44.3026 14.3981 44.3009 16.5749 44.3009 18.752C44.3005 18.8142 44.3005 18.8771 44.3005 18.9661Z" fill="white"/>
<path fill-rule="evenodd" clip-rule="evenodd" d="M70.6717 4.85596C79.2596 4.85596 87.8479 4.85596 96.4358 4.85735C96.4882 4.85735 96.5406 4.87936 96.593 4.89089C96.5867 4.98871 96.5755 5.08652 96.5752 5.18469C96.5741 7.20703 96.5741 9.22972 96.5752 11.2521C96.5752 11.3443 96.5867 11.4365 96.593 11.5284C96.593 11.5518 96.593 11.5749 96.593 11.5983C96.513 11.6066 96.433 11.6227 96.353 11.6227C90.3443 11.6238 84.3359 11.6238 78.3272 11.6238C78.2483 11.6238 78.1697 11.6238 78.075 11.6238C78.075 11.7139 78.075 11.7768 78.075 11.8397C78.075 13.1556 78.075 14.4712 78.075 15.7872C78.075 16.0541 78.075 16.0541 78.3444 16.0541C82.6413 16.0541 86.9382 16.0541 91.2348 16.0541C91.3081 16.0541 91.3815 16.0541 91.4566 16.0541C91.4566 18.124 91.4566 20.1683 91.4566 22.2322C86.9899 22.2322 82.5389 22.2322 78.0876 22.2322C78.0876 23.6862 78.0876 25.1209 78.0876 26.5725C78.1865 26.5725 78.2724 26.5725 78.3587 26.5725C84.3499 26.5725 90.3408 26.5725 96.3321 26.5732C96.419 26.5732 96.5057 26.5808 96.5927 26.585C96.5927 28.949 96.5927 31.3127 96.5927 33.6767C87.9524 33.6767 79.3117 33.6767 70.6714 33.6767C70.6707 33.6477 70.6689 33.6187 70.6689 33.5893C70.6689 24.1162 70.6689 14.6431 70.6693 5.17002C70.67 5.06556 70.671 4.96076 70.6717 4.85596Z" fill="white"/>
<path fill-rule="evenodd" clip-rule="evenodd" d="M21.764 33.6767C18.7481 33.6767 15.7319 33.6767 12.716 33.6767C12.6989 33.6274 12.6846 33.5764 12.664 33.5289C12.1557 32.3673 11.6474 31.2058 11.138 30.0449C10.3922 28.3457 9.6446 26.6476 8.89945 24.948C8.32968 23.6481 7.76339 22.3468 7.19361 21.0469C6.57703 19.6408 5.95764 18.2358 5.34105 16.8293C4.77127 15.5294 4.20534 14.2281 3.63591 12.9282C3.09478 11.6926 2.55155 10.4577 2.00867 9.22273C1.58737 8.26449 1.16641 7.30589 0.742658 6.3487C0.521524 5.84983 0.294451 5.35342 0.0698242 4.85596C2.73635 4.85596 5.40323 4.85596 8.06977 4.85596C8.45928 5.73281 8.85509 6.60721 9.23727 7.4872C9.74451 8.6554 10.2402 9.82884 10.7429 10.9991C11.4776 12.7092 12.2144 14.4181 12.949 16.1285C13.4563 17.3096 13.9597 18.4925 14.4666 19.6736C15.2278 21.4483 15.989 23.2226 16.7527 24.9962C16.89 25.3152 17.0398 25.6289 17.2082 25.9988C17.3085 25.8619 17.3913 25.7739 17.444 25.6708C17.5125 25.537 17.553 25.3892 17.6128 25.2502C18.0934 24.1337 18.5762 23.0182 19.0569 21.9021C19.7888 20.2036 20.5207 18.5051 21.2505 16.8055C21.8059 15.5123 22.3568 14.2173 22.9126 12.924C23.5212 11.5081 24.1308 10.0926 24.7439 8.67846C25.2965 7.40336 25.8548 6.13001 26.4102 4.85596C29.0887 4.85596 31.7667 4.85596 34.4451 4.85596C34.4249 4.89124 34.4018 4.92513 34.385 4.96181C34.0091 5.80023 33.6308 6.63795 33.2594 7.47847C32.7519 8.62745 32.2505 9.77958 31.7451 10.9296C31.1809 12.2127 30.6139 13.4945 30.0504 14.7776C29.489 16.0555 28.9304 17.3345 28.3697 18.6127C27.795 19.9227 27.2193 21.2324 26.6447 22.5421C26.215 23.522 25.7867 24.5023 25.3563 25.4818C24.7973 26.7541 24.2363 28.0257 23.6766 29.298C23.241 30.2881 22.8057 31.2784 22.3718 32.2692C22.1671 32.7376 21.9666 33.2075 21.764 33.6767Z" fill="white"/>
<path d="M112.78 19.2312L96.8027 38.4974H107.108L123.086 19.2312H112.78Z" fill="white"/>
<path d="M128.703 0L112.733 19.2488H123.034L139.003 0H128.703Z" fill="white"/>
<path d="M110.704 4.75098H100.402L112.742 19.2487H123.045L110.704 4.75098Z" fill="white"/>
<path d="M123.033 19.2488H112.733L125.114 33.6417H135.414L123.033 19.2488Z" fill="white"/>
</g>
<defs>
<clipPath id="clip0_11434_40911">
<rect width="139.003" height="48" fill="white"/>
</clipPath>
</defs>
</svg>
