<svg width="133" height="50" viewBox="0 0 133 50" fill="none" xmlns="http://www.w3.org/2000/svg">
<g filter="url(#filter0_d_11434_40981)">
<path d="M46.88 5V17H45.52V11.48H38.496V17H37.136V5H38.496V10.28H45.52V5H46.88ZM48.832 12.808C48.832 11.0267 49.0613 9.864 49.52 9.32C49.9893 8.776 51.0027 8.504 52.56 8.504C54.1173 8.504 55.1253 8.776 55.584 9.32C56.0533 9.864 56.288 11.0267 56.288 12.808C56.288 14.5787 56.0533 15.736 55.584 16.28C55.1253 16.824 54.1173 17.096 52.56 17.096C51.0027 17.096 49.9893 16.824 49.52 16.28C49.0613 15.736 48.832 14.5787 48.832 12.808ZM50.144 12.808C50.144 14.28 50.2667 15.192 50.512 15.544C50.768 15.896 51.4507 16.072 52.56 16.072C53.6693 16.072 54.3467 15.896 54.592 15.544C54.848 15.192 54.976 14.28 54.976 12.808C54.976 11.3253 54.848 10.408 54.592 10.056C54.3467 9.704 53.6693 9.528 52.56 9.528C51.4507 9.528 50.768 9.704 50.512 10.056C50.2667 10.408 50.144 11.3253 50.144 12.808ZM62.661 8.6V9.624H59.413V14.952C59.413 15.4 59.493 15.6987 59.653 15.848C59.813 15.9973 60.1277 16.072 60.597 16.072C61.1303 16.072 61.477 15.9333 61.637 15.656C61.733 15.4853 61.781 15.1493 61.781 14.648V14.024H62.981V14.648C62.981 15.4907 62.789 16.1093 62.405 16.504C62.0317 16.8987 61.4183 17.096 60.565 17.096C59.5943 17.096 58.949 16.9253 58.629 16.584C58.309 16.232 58.149 15.56 58.149 14.568V9.624H57.029V8.6H58.149V6.568H59.413V8.6H62.661ZM65.3364 5V17H64.0724V5H65.3364ZM68.7582 8.6V17H67.4943V8.6H68.7582ZM68.7582 5V6.392H67.4943V5H68.7582ZM72.2118 8.6V9.624H72.2438C72.5424 8.87733 73.4064 8.504 74.8358 8.504C75.9664 8.504 76.7664 8.696 77.2358 9.08C77.7478 9.51733 78.0038 10.296 78.0038 11.416V17H76.7398V11.32C76.7398 10.584 76.5798 10.0933 76.2598 9.848C75.9931 9.63467 75.4811 9.528 74.7238 9.528C73.7104 9.528 73.0384 9.70933 72.7078 10.072C72.3771 10.4347 72.2118 11.112 72.2118 12.104V17H70.9478V8.6H72.2118ZM86.021 14.456H87.317V14.76C87.317 15.7627 86.9543 16.4293 86.229 16.76C85.749 16.984 84.917 17.096 83.733 17.096C82.1543 17.096 81.1143 16.7813 80.613 16.152C80.1757 15.5973 79.957 14.4827 79.957 12.808C79.957 11.0693 80.2077 9.91733 80.709 9.352C81.2103 8.78667 82.2183 8.504 83.733 8.504C85.1303 8.504 86.069 8.73867 86.549 9.208C87.061 9.70933 87.317 10.7173 87.317 12.232V13.08H81.269C81.269 14.424 81.397 15.2613 81.653 15.592C81.9197 15.912 82.613 16.072 83.733 16.072C84.6503 16.072 85.2477 16.0027 85.525 15.864C85.8557 15.704 86.021 15.3413 86.021 14.776V14.456ZM81.269 12.056H86.005C85.973 10.8933 85.829 10.1733 85.573 9.896C85.3277 9.65067 84.7143 9.528 83.733 9.528C82.6557 9.528 81.973 9.70933 81.685 10.072C81.461 10.3387 81.3223 11 81.269 12.056Z" fill="white"/>
<path d="M43.168 29V41H41.808V30.04L38.736 33.416L37.888 32.6L41.2 29H43.168ZM52.6309 35.144C54.0282 35.144 54.8922 35.0213 55.2229 34.776C55.5535 34.52 55.7189 33.832 55.7189 32.712C55.7189 31.5067 55.5055 30.7493 55.0789 30.44C54.7482 30.216 53.9322 30.104 52.6309 30.104C51.2229 30.104 50.3695 30.2213 50.0709 30.456C49.7295 30.7227 49.5589 31.4747 49.5589 32.712C49.5589 33.8213 49.7402 34.5093 50.1029 34.776C50.4335 35.0213 51.2762 35.144 52.6309 35.144ZM48.0549 38.392V37.944H49.4149V38.392C49.4149 39.064 49.6175 39.4853 50.0229 39.656C50.3855 39.816 51.2549 39.896 52.6309 39.896C53.9642 39.896 54.7962 39.7733 55.1269 39.528C55.5215 39.24 55.7189 38.4987 55.7189 37.304V35.304L55.6869 35.272C55.3669 35.9867 54.3482 36.344 52.6309 36.344C50.8815 36.344 49.7295 36.136 49.1749 35.72C48.5242 35.2507 48.1989 34.248 48.1989 32.712C48.1989 31.112 48.5029 30.0667 49.1109 29.576C49.6655 29.128 50.8389 28.904 52.6309 28.904C54.3909 28.904 55.5589 29.128 56.1349 29.576C56.7642 30.0773 57.0789 31.1227 57.0789 32.712V37.304C57.0789 38.8507 56.8175 39.8587 56.2949 40.328C55.7295 40.84 54.5082 41.096 52.6309 41.096C50.9562 41.096 49.8415 40.9733 49.2869 40.728C48.4655 40.376 48.0549 39.5973 48.0549 38.392ZM63.5978 30.104C62.4564 30.104 61.6991 30.1413 61.3258 30.216C60.7711 30.344 60.3871 30.6213 60.1738 31.048C59.9711 31.4747 59.8698 32.2053 59.8698 33.24V36.76C59.8698 37.7947 59.9711 38.5253 60.1738 38.952C60.3871 39.3787 60.7711 39.656 61.3258 39.784C61.6991 39.8587 62.4564 39.896 63.5978 39.896C64.7498 39.896 65.5178 39.8587 65.9018 39.784C66.4564 39.656 66.8351 39.3787 67.0378 38.952C67.2511 38.5253 67.3578 37.7947 67.3578 36.76V33.24C67.3578 32.2053 67.2511 31.4747 67.0378 31.048C66.8351 30.6213 66.4564 30.344 65.9018 30.216C65.5178 30.1413 64.7498 30.104 63.5978 30.104ZM63.6298 41.096C61.6351 41.096 60.3124 40.856 59.6618 40.376C58.8938 39.8 58.5098 38.5947 58.5098 36.76V33.24C58.5098 31.4053 58.8938 30.2 59.6618 29.624C60.3124 29.144 61.6244 28.904 63.5978 28.904C65.5924 28.904 66.9151 29.144 67.5658 29.624C68.3338 30.2 68.7178 31.4053 68.7178 33.24V36.76C68.7178 38.5947 68.3338 39.8 67.5658 40.376C66.9151 40.856 65.6031 41.096 63.6298 41.096ZM74.6446 30.104C73.5033 30.104 72.746 30.1413 72.3726 30.216C71.818 30.344 71.434 30.6213 71.2206 31.048C71.018 31.4747 70.9166 32.2053 70.9166 33.24V36.76C70.9166 37.7947 71.018 38.5253 71.2206 38.952C71.434 39.3787 71.818 39.656 72.3726 39.784C72.746 39.8587 73.5033 39.896 74.6446 39.896C75.7966 39.896 76.5646 39.8587 76.9486 39.784C77.5033 39.656 77.882 39.3787 78.0846 38.952C78.298 38.5253 78.4046 37.7947 78.4046 36.76V33.24C78.4046 32.2053 78.298 31.4747 78.0846 31.048C77.882 30.6213 77.5033 30.344 76.9486 30.216C76.5646 30.1413 75.7966 30.104 74.6446 30.104ZM74.6766 41.096C72.682 41.096 71.3593 40.856 70.7086 40.376C69.9406 39.8 69.5566 38.5947 69.5566 36.76V33.24C69.5566 31.4053 69.9406 30.2 70.7086 29.624C71.3593 29.144 72.6713 28.904 74.6446 28.904C76.6393 28.904 77.962 29.144 78.6126 29.624C79.3806 30.2 79.7646 31.4053 79.7646 33.24V36.76C79.7646 38.5947 79.3806 39.8 78.6126 40.376C77.962 40.856 76.65 41.096 74.6766 41.096ZM95.4631 29V30.712L89.6391 41H88.0391L94.3431 30.12H86.7111V29H95.4631ZM102.254 30.104C101.113 30.104 100.355 30.1413 99.982 30.216C99.4273 30.344 99.0433 30.6213 98.83 31.048C98.6273 31.4747 98.526 32.2053 98.526 33.24V36.76C98.526 37.7947 98.6273 38.5253 98.83 38.952C99.0433 39.3787 99.4273 39.656 99.982 39.784C100.355 39.8587 101.113 39.896 102.254 39.896C103.406 39.896 104.174 39.8587 104.558 39.784C105.113 39.656 105.491 39.3787 105.694 38.952C105.907 38.5253 106.014 37.7947 106.014 36.76V33.24C106.014 32.2053 105.907 31.4747 105.694 31.048C105.491 30.6213 105.113 30.344 104.558 30.216C104.174 30.1413 103.406 30.104 102.254 30.104ZM102.286 41.096C100.291 41.096 98.9687 40.856 98.318 40.376C97.55 39.8 97.166 38.5947 97.166 36.76V33.24C97.166 31.4053 97.55 30.2 98.318 29.624C98.9687 29.144 100.281 28.904 102.254 28.904C104.249 28.904 105.571 29.144 106.222 29.624C106.99 30.2 107.374 31.4053 107.374 33.24V36.76C107.374 38.5947 106.99 39.8 106.222 40.376C105.571 40.856 104.259 41.096 102.286 41.096ZM114.965 29V41H113.605V30.04L110.533 33.416L109.685 32.6L112.997 29H114.965ZM124.652 34.776C123.254 34.776 122.364 34.8827 121.98 35.096C121.51 35.3413 121.276 35.928 121.276 36.856C121.276 38.1893 121.436 39.0213 121.756 39.352C122.097 39.7147 122.966 39.896 124.364 39.896C125.377 39.896 126.092 39.832 126.508 39.704C126.924 39.576 127.19 39.3253 127.308 38.952C127.404 38.6747 127.452 38.136 127.452 37.336C127.452 36.1947 127.302 35.4853 127.004 35.208C126.705 34.92 125.921 34.776 124.652 34.776ZM119.916 36.856V32.104C119.916 30.7813 120.316 29.8907 121.116 29.432C121.745 29.08 122.849 28.904 124.428 28.904C125.772 28.904 126.705 29.016 127.228 29.24C128.102 29.624 128.54 30.4293 128.54 31.656V32.04H127.18V31.704C127.18 30.968 126.945 30.4987 126.476 30.296C126.166 30.168 125.484 30.104 124.428 30.104C123.158 30.104 122.358 30.184 122.028 30.344C121.526 30.5787 121.276 31.1653 121.276 32.104V34.68H121.308C121.606 33.944 122.625 33.576 124.364 33.576C126.124 33.576 127.281 33.7787 127.836 34.184C128.486 34.6747 128.812 35.7253 128.812 37.336C128.812 38.904 128.497 39.9333 127.868 40.424C127.292 40.872 126.124 41.096 124.364 41.096C122.604 41.096 121.441 40.856 120.876 40.376C120.236 39.8213 119.916 38.648 119.916 36.856Z" fill="#FFC600"/>
<g clip-path="url(#clip0_11434_40981)">
<path d="M18.6667 13.28V15.28C18.6675 15.4656 18.6294 15.6494 18.555 15.8195C18.4807 15.9897 18.3716 16.1424 18.2348 16.2679C18.0979 16.3934 17.9364 16.489 17.7605 16.5485C17.5847 16.6079 17.3983 16.63 17.2134 16.6133C15.1619 16.3904 13.1914 15.6894 11.46 14.5666C9.84926 13.5431 8.48359 12.1774 7.46004 10.5666C6.33336 8.82745 5.6322 6.84731 5.41337 4.78665C5.39671 4.60229 5.41862 4.41649 5.4777 4.24107C5.53679 4.06564 5.63175 3.90444 5.75655 3.76773C5.88134 3.63102 6.03324 3.52179 6.20256 3.447C6.37189 3.37221 6.55493 3.33349 6.74004 3.33332H8.74004C9.06357 3.33013 9.37723 3.4447 9.62254 3.65567C9.86786 3.86664 10.0281 4.15961 10.0734 4.47998C10.1578 5.12003 10.3143 5.74847 10.54 6.35332C10.6297 6.59193 10.6491 6.85126 10.596 7.10057C10.5428 7.34988 10.4193 7.57872 10.24 7.75998L9.39337 8.60665C10.3424 10.2757 11.7243 11.6576 13.3934 12.6066L14.24 11.76C14.4213 11.5807 14.6501 11.4572 14.8994 11.404C15.1488 11.3509 15.4081 11.3703 15.6467 11.46C16.2516 11.6857 16.88 11.8422 17.52 11.9266C17.8439 11.9723 18.1396 12.1355 18.3511 12.385C18.5625 12.6345 18.6748 12.953 18.6667 13.28Z" stroke="white" stroke-width="1.5" stroke-linecap="round" stroke-linejoin="round"/>
<path d="M14.0334 5.33341C14.6846 5.46046 15.283 5.77892 15.7522 6.24804C16.2213 6.71716 16.5397 7.31559 16.6668 7.96675M14.0334 2.66675C15.3863 2.81704 16.6478 3.42286 17.6109 4.38475C18.574 5.34664 19.1815 6.60742 19.3334 7.96008" stroke="#FFC600" stroke-width="1.5" stroke-linecap="round" stroke-linejoin="round"/>
</g>
</g>
<defs>
<filter id="filter0_d_11434_40981" x="0" y="2" width="132.812" height="47.0959" filterUnits="userSpaceOnUse" color-interpolation-filters="sRGB">
<feFlood flood-opacity="0" result="BackgroundImageFix"/>
<feColorMatrix in="SourceAlpha" type="matrix" values="0 0 0 0 0 0 0 0 0 0 0 0 0 0 0 0 0 0 127 0" result="hardAlpha"/>
<feOffset dy="4"/>
<feGaussianBlur stdDeviation="2"/>
<feComposite in2="hardAlpha" operator="out"/>
<feColorMatrix type="matrix" values="0 0 0 0 0 0 0 0 0 0 0 0 0 0 0 0 0 0 0.25 0"/>
<feBlend mode="normal" in2="BackgroundImageFix" result="effect1_dropShadow_11434_40981"/>
<feBlend mode="normal" in="SourceGraphic" in2="effect1_dropShadow_11434_40981" result="shape"/>
</filter>
<clipPath id="clip0_11434_40981">
<rect width="16" height="16" fill="white" transform="translate(4 2)"/>
</clipPath>
</defs>
</svg>
